<svg width="24" height="24" viewBox="0 0 24 24" fill="none" xmlns="http://www.w3.org/2000/svg">
<path d="M22.4 14.4V4C22.4 2.67452 21.3255 1.6 20 1.6H3.99998C2.67449 1.6 1.59998 2.67452 1.59998 4V20C1.59998 21.3255 2.67449 22.4 3.99998 22.4H14.4" stroke="#253031" stroke-width="1.6" stroke-linecap="round"/>
<path fill-rule="evenodd" clip-rule="evenodd" d="M14.3957 14.026C13.8033 14.5575 13.3438 15.2342 13.0731 16H8.77561C8.5547 16 8.37561 15.8209 8.37561 15.6C8.37561 15.5169 8.40151 15.4358 8.44971 15.3681L11.4299 11.1801C11.558 11.0001 11.8078 10.9581 11.9878 11.0861C12.0171 11.107 12.0435 11.1318 12.0663 11.1598L14.3957 14.026ZM14.8 10.4C14.1373 10.4 13.6 9.86273 13.6 9.19999C13.6 8.53725 14.1373 7.99999 14.8 7.99999C15.4628 7.99999 16 8.53725 16 9.19999C16 9.86273 15.4628 10.4 14.8 10.4Z" fill="#253031"/>
<path fill-rule="evenodd" clip-rule="evenodd" d="M17.6 23.2C20.6928 23.2 23.2 20.6928 23.2 17.6C23.2 14.5072 20.6928 12 17.6 12C14.5072 12 12 14.5072 12 17.6C12 20.6928 14.5072 23.2 17.6 23.2Z" stroke="#253031" stroke-width="1.6" stroke-linecap="round"/>
<path d="M16 17.6H19.2" stroke="#253031" stroke-width="1.6" stroke-linecap="round"/>
<path d="M17.6 16V19.2" stroke="#253031" stroke-width="1.6" stroke-linecap="round"/>
</svg>
