<svg width="24" height="24" viewBox="0 0 24 24" fill="none" xmlns="http://www.w3.org/2000/svg">
<path d="M1.59999 12C1.59999 11.5582 1.24182 11.2 0.799988 11.2C0.35816 11.2 -1.2219e-05 11.5582 -1.2219e-05 12H1.59999ZM22.6864 17.4642C22.8879 17.0709 22.7324 16.5888 22.3392 16.3874C21.9459 16.186 21.4638 16.3414 21.2624 16.7347L22.6864 17.4642ZM22.3999 12C22.3999 12.4418 22.7581 12.8 23.1999 12.8C23.6417 12.8 23.9999 12.4418 23.9999 12H22.3999ZM1.03496 7.11767C0.855026 7.5212 1.03629 7.99419 1.43982 8.17412C1.84335 8.35406 2.31634 8.17279 2.49627 7.76926L1.03496 7.11767ZM-1.2219e-05 12C-1.2219e-05 18.6274 5.37257 24 12 24V22.4C6.25623 22.4 1.59999 17.7438 1.59999 12H-1.2219e-05ZM12 24C16.6608 24 20.6996 21.3427 22.6864 17.4642L21.2624 16.7347C19.5385 20.0998 16.0372 22.4 12 22.4V24ZM23.9999 12C23.9999 5.37259 18.6273 3.03984e-06 11.9999 3.03984e-06V1.6C17.7437 1.6 22.3999 6.25624 22.3999 12H23.9999ZM11.9999 3.03984e-06C7.10969 3.03984e-06 2.90441 2.92507 1.03496 7.11767L2.49627 7.76926C4.1179 4.13246 7.76402 1.6 11.9999 1.6V3.03984e-06Z" fill="#253031"/>
<path d="M0.799927 12C0.799927 12 3.19993 14 4.39993 13.2C5.59993 12.4 6.00445 7.59996 6.79993 7.59996C7.5954 7.59996 7.5954 14.4 8.79993 14.4C10.0045 14.4 9.59993 4.79996 10.7999 4.79996C11.9999 4.79996 11.1999 19.2 12.3999 19.2C13.5999 19.2 13.5999 9.59996 14.3999 9.59996C15.1999 9.59996 15.5999 13.6 16.3999 13.6C17.1999 13.6 17.5999 10.8 18.3999 10.8C19.1999 10.8 19.7004 12.8 20.3999 12.8C21.0994 12.8 21.1999 11.6 21.9999 11.2C22.7999 10.8 23.1999 11.6 23.1999 11.6" stroke="#253031" stroke-width="1.6" stroke-linecap="round"/>
</svg>
