<svg width="24" height="24" viewBox="0 0 24 24" fill="none" xmlns="http://www.w3.org/2000/svg">
<g clip-path="url(#clip0)">
<path d="M16.7713 3.47195C15.4813 2.2015 13.7864 1.50104 12 1.50104C8.27866 1.50104 5.25031 4.5294 5.25031 8.25072V18.7502C5.25031 19.1642 5.58629 19.5002 6.00027 19.5002H7.5002C7.91418 19.5002 8.25016 19.1642 8.25016 18.7502C8.25016 18.3363 7.91418 18.0003 7.5002 18.0003H6.75023V8.25072C6.75023 5.35586 9.10512 3.00097 12 3.00097C13.3904 3.00097 14.7119 3.54694 15.7108 4.5324C16.7038 5.53885 17.2497 6.85879 17.2497 8.25072V18.0003H16.4998C16.0858 18.0003 15.7498 18.3363 15.7498 18.7502C15.7498 19.1642 16.0858 19.5002 16.4998 19.5002H17.9997C18.4137 19.5002 18.7497 19.1642 18.7497 18.7502V8.25072C18.7497 6.46281 18.0492 4.76788 16.7713 3.47195Z" fill="#253031"/>
<path d="M13.4999 18.0003H10.5001C10.0861 18.0003 9.75012 18.3363 9.75012 18.7503C9.75012 19.1642 10.0861 19.5002 10.5001 19.5002H13.4999C13.9139 19.5002 14.2499 19.1642 14.2499 18.7503C14.2499 18.3363 13.9139 18.0003 13.4999 18.0003Z" fill="#253031"/>
<path d="M10.5001 18.0003C10.0861 18.0003 9.7501 18.3363 9.7501 18.7503V21.7501C9.7501 22.1626 9.41412 22.5001 9.00014 22.5001C8.58616 22.5001 8.25017 22.1626 8.25017 21.7501V18.7503C8.25017 18.3363 7.91419 18.0003 7.50021 18.0003C7.08623 18.0003 6.75024 18.3363 6.75024 18.7503V21.7501C6.75024 22.9906 7.7597 24 9.00014 24C10.2406 24 11.25 22.9906 11.25 21.7501V18.7503C11.25 18.3363 10.914 18.0003 10.5001 18.0003Z" fill="#253031"/>
<path d="M16.4998 18.0003C16.0858 18.0003 15.7498 18.3363 15.7498 18.7503V21.7501C15.7498 22.1626 15.4123 22.5001 14.9999 22.5001C14.5874 22.5001 14.2499 22.1626 14.2499 21.7501V18.7503C14.2499 18.3363 13.9139 18.0003 13.4999 18.0003C13.086 18.0003 12.75 18.3363 12.75 18.7503V21.7501C12.75 22.9906 13.7594 24 14.9999 24C16.2403 24 17.2498 22.9906 17.2498 21.7501V18.7503C17.2498 18.3363 16.9138 18.0003 16.4998 18.0003Z" fill="#253031"/>
<path d="M3.00042 7.50078C2.58644 7.50078 2.25046 7.83676 2.25046 8.25074V15.7504C2.25046 16.1644 2.58644 16.5004 3.00042 16.5004C3.4144 16.5004 3.75039 16.1644 3.75039 15.7504V8.25074C3.75039 7.83676 3.4144 7.50078 3.00042 7.50078Z" fill="#253031"/>
<path d="M20.9996 7.50078C20.5856 7.50078 20.2496 7.83676 20.2496 8.25074V15.7504C20.2496 16.1644 20.5856 16.5004 20.9996 16.5004C21.4135 16.5004 21.7495 16.1644 21.7495 15.7504V8.25074C21.7495 7.83676 21.4135 7.50078 20.9996 7.50078Z" fill="#253031"/>
<path d="M17.9997 7.50078H6.00027C5.58629 7.50078 5.25031 7.83676 5.25031 8.25074C5.25031 8.66472 5.58629 9.00071 6.00027 9.00071H17.9997C18.4137 9.00071 18.7497 8.66472 18.7497 8.25074C18.7497 7.83676 18.4137 7.50078 17.9997 7.50078Z" fill="#253031"/>
<path d="M8.61017 3.40446L6.63027 0.344602C6.40528 -0.00488168 5.9403 -0.103877 5.59381 0.121112C5.24583 0.346102 5.14534 0.81108 5.37032 1.15756L7.35023 4.21742C7.49273 4.43941 7.73421 4.5609 7.9802 4.5609C8.1212 4.5609 8.26069 4.52191 8.38668 4.44091C8.73467 4.21592 8.83516 3.75094 8.61017 3.40446Z" fill="#253031"/>
<path d="M18.3792 0.103139C18.0267 -0.105352 17.5632 0.0116428 17.3532 0.370126L15.4933 3.53498C15.2833 3.89346 15.4033 4.35244 15.7603 4.56243C15.8788 4.63293 16.0093 4.66592 16.1398 4.66592C16.3963 4.66592 16.6468 4.53243 16.7863 4.29544L18.6462 1.13059C18.8562 0.772107 18.7362 0.313129 18.3792 0.103139Z" fill="#253031"/>
<path d="M13.5299 4.50093H13.5149C13.0994 4.50093 12.7725 4.83692 12.7725 5.2509C12.7725 5.66488 13.1159 6.00086 13.5299 6.00086C13.9439 6.00086 14.2799 5.66488 14.2799 5.2509C14.2799 4.83692 13.9439 4.50093 13.5299 4.50093Z" fill="#253031"/>
<path d="M10.53 4.50093H10.515C10.1011 4.50093 9.77258 4.83692 9.77258 5.2509C9.77258 5.66488 10.1161 6.00086 10.53 6.00086C10.944 6.00086 11.28 5.66488 11.28 5.2509C11.28 4.83692 10.944 4.50093 10.53 4.50093Z" fill="#253031"/>
</g>
<defs>
<clipPath id="clip0">
<rect width="24" height="24" fill="white"/>
</clipPath>
</defs>
</svg>
