<svg width="24" height="24" viewBox="0 0 24 24" fill="none" xmlns="http://www.w3.org/2000/svg">
<path d="M21.1657 16.514C20.4156 16.0637 18.8553 15.1262 18.8553 12.6874C18.8553 10.629 20.2329 9.59025 20.9727 9.03221L20.9882 9.0205C21.2852 8.79653 21.356 8.37952 21.1498 8.06981C19.4968 5.58791 16.6578 5.51622 16.1059 5.52653H16.1026C15.724 5.527 15.3628 5.57057 15.0203 5.63945C15.1468 5.53824 15.2695 5.43048 15.3876 5.31615C16.5702 4.17196 17.2201 2.48378 17.17 0.683144C17.1592 0.303151 16.8481 0 16.4676 0C15.1885 0 13.7341 0.764203 12.6719 1.99461C11.6017 3.23439 11.1018 4.71969 11.3009 6.06911C11.3173 6.18109 11.3604 6.28324 11.4223 6.37086C11.2349 6.30807 11.0367 6.23498 10.8408 6.16282C10.0967 5.88872 9.25289 5.57807 8.46292 5.57807C8.44699 5.57807 6.8408 5.58978 5.23696 6.58592C3.83413 7.45789 2.16141 9.27258 2.16141 12.969C2.16141 14.8914 2.91249 17.5828 4.07496 19.8262C4.87805 21.3761 6.54468 23.9775 8.68501 23.9897H8.70797C10.2687 23.9897 11.5619 23.0681 12.4414 23.0681C13.9435 23.0681 14.4781 24 16.1026 24C17.5589 24 18.9701 22.8938 20.2975 20.7127C20.7848 19.9114 21.1639 19.1191 21.3958 18.5953C21.8386 17.5973 21.8386 17.4642 21.8386 17.3668C21.8386 16.9184 21.4965 16.7127 21.1657 16.514ZM13.736 2.91297C14.3127 2.24482 15.0395 1.74909 15.7278 1.53028C15.5961 2.62153 15.1351 3.60501 14.4102 4.30596C13.9023 4.79747 13.2927 5.11702 12.6738 5.22713C12.7394 4.45496 13.1086 3.63969 13.736 2.91297ZM19.0287 20.0923C18.0255 21.706 16.9863 22.5944 16.1026 22.5944C14.8867 22.5944 14.3184 21.6624 12.4414 21.6624C11.1749 21.6624 9.96649 22.5906 8.69298 22.584C7.69965 22.5784 6.40833 21.274 5.32317 19.1796C4.25629 17.1212 3.56705 14.6834 3.56705 12.969C3.56705 10.5419 4.36499 8.80497 5.93744 7.80602C7.16176 7.0287 8.41419 6.98512 8.46714 6.98372C9.56448 6.98653 11.0877 7.95783 12.1977 7.95783C13.1971 7.95783 14.5353 6.93218 16.1078 6.93218H16.1335C16.5149 6.92468 18.3156 6.96732 19.5806 8.34017C18.6867 9.09312 17.4497 10.4472 17.4497 12.6874C17.4497 15.7301 19.374 17.0659 20.283 17.6231C20.0567 18.1713 19.6252 19.1332 19.0287 20.0923Z" fill="#253031"/>
</svg>
