<svg width="24" height="24" viewBox="0 0 24 24" fill="none" xmlns="http://www.w3.org/2000/svg">
<path d="M22.4 12H20.8C19.4745 12 18.4 13.0745 18.4 14.4V16.8C18.4 17.6837 19.1163 18.4 20 18.4H20.8C21.6836 18.4 22.4 17.6837 22.4 16.8V12C22.4 6.25624 17.7437 1.6 12 1.6C6.25621 1.6 1.59998 6.25624 1.59998 12V16.8C1.59998 17.6837 2.31632 18.4 3.19998 18.4H3.99998C4.88363 18.4 5.59998 17.6837 5.59998 16.8V14.4C5.59998 13.0745 4.52546 12 3.19998 12H1.59998" stroke="#253031" stroke-width="1.6" stroke-linecap="round"/>
<path d="M22.4 16.4V16.8C22.4 19.451 20.2509 21.6 17.6 21.6H13.6" stroke="#253031" stroke-width="1.6" stroke-linecap="round"/>
<path fill-rule="evenodd" clip-rule="evenodd" d="M12 23.2C12.8837 23.2 13.6 22.4836 13.6 21.6C13.6 20.7163 12.8837 20 12 20C11.1164 20 10.4 20.7163 10.4 21.6C10.4 22.4836 11.1164 23.2 12 23.2Z" stroke="#253031" stroke-width="1.6" stroke-linecap="round"/>
</svg>
