<svg width="24" height="24" viewBox="0 0 24 24" fill="none" xmlns="http://www.w3.org/2000/svg">
<path fill-rule="evenodd" clip-rule="evenodd" d="M3.20001 3.2C3.20001 1.87452 4.27453 0.800003 5.60001 0.800003H18.4C19.7255 0.800003 20.8 1.87452 20.8 3.2V16C20.8 17.3255 19.7255 18.4 18.4 18.4H5.60001C4.27453 18.4 3.20001 17.3255 3.20001 16V3.2Z" stroke="#253031" stroke-width="1.6" stroke-linecap="round"/>
<path d="M6.40009 18.3999V21.5999C6.40009 22.4836 7.11643 23.1999 8.00009 23.1999H16.0001C16.8837 23.1999 17.6001 22.4836 17.6001 21.5999V18.3999" stroke="#253031" stroke-width="1.6" stroke-linecap="round"/>
<rect x="6.40009" y="3.99995" width="11.2" height="4" rx="0.8" stroke="#253031" stroke-width="1.6" stroke-linecap="round"/>
<path d="M12.9478 12.461C12.8586 12.2398 12.7317 12.048 12.5671 11.8867C12.4023 11.7252 12.2042 11.5996 11.9745 11.5094C11.7444 11.4183 11.4906 11.3736 11.2144 11.3736H9.88961H9.78961V11.4736V14.8839V14.9839H9.88961H11.2144C11.4904 14.9839 11.7439 14.9401 11.9739 14.8507L11.9742 14.8506C12.2041 14.7603 12.4022 14.6347 12.5671 14.4732L12.5674 14.4728L12.8552 13.8611L12.9477 13.899C12.9477 13.899 12.9478 13.8989 12.9478 13.8989C13.0389 13.6767 13.0839 13.4359 13.0839 13.1776C13.0839 12.9208 13.0389 12.6816 12.9478 12.461ZM12.9478 12.461C12.9478 12.4611 12.9479 12.4613 12.948 12.4614L12.8552 12.4988L12.9476 12.4606C12.9477 12.4607 12.9477 12.4609 12.9478 12.461ZM14.9635 13.0583V14.8839V14.9839H14.8635H14.166H14.066V14.8839V11.4736V11.3736H14.166H14.7699L14.9635 13.0583ZM14.9635 13.0583L15.6641 14.4124C15.6996 14.4814 15.7492 14.5376 15.8139 14.5764L15.8139 14.5764L15.8151 14.5772C15.8801 14.6149 15.9523 14.6328 16.0292 14.6328H16.1369C16.2135 14.6328 16.2853 14.615 16.3492 14.5768C16.349 14.5769 16.3488 14.577 16.3486 14.5772L14.9635 13.0583ZM17.2025 13.0531V14.8839V14.9839H17.3025H18H18.1V14.8839V11.4736V11.3736H18H17.3961C17.3604 11.3736 17.3279 11.3744 17.299 11.3761L17.2986 11.3761C17.265 11.3782 17.2321 11.3847 17.2011 11.3967C17.1663 11.41 17.136 11.4308 17.1101 11.4567C17.0847 11.4821 17.0636 11.5143 17.0455 11.5487L17.0448 11.55L16.1696 13.2724C16.1696 13.2725 16.1695 13.2725 16.1695 13.2726C16.1398 13.3305 16.1108 13.3904 16.0826 13.4523C16.056 13.3927 16.028 13.3349 15.9986 13.2791C15.9985 13.2789 15.9984 13.2787 15.9983 13.2785L15.1212 11.5501L15.1213 11.5501L15.1206 11.5487C15.1025 11.5144 15.0808 11.4823 15.0537 11.4567C15.029 11.4305 14.9993 11.4099 14.965 11.3967C14.9333 11.3845 14.8995 11.3782 14.8649 11.3761C14.865 11.3761 14.865 11.3761 14.8651 11.3761L17.2025 13.0531ZM17.2025 13.0531L16.502 14.4124L17.2025 13.0531ZM8.42488 13.9794L8.4249 13.9794L8.42311 13.9776C8.3983 13.9528 8.36868 13.9319 8.3338 13.9196C8.30485 13.9079 8.27419 13.9015 8.24238 13.9015C8.20379 13.9015 8.16684 13.9104 8.1325 13.9271C8.10254 13.9402 8.07487 13.9575 8.04963 13.9785L8.04962 13.9785L8.04816 13.9798C8.0053 14.0169 7.96329 14.0476 7.9222 14.0723C7.88328 14.0951 7.84142 14.114 7.79647 14.129L7.79647 14.129L7.79558 14.1293C7.75308 14.1439 7.70549 14.1549 7.65248 14.162C7.5976 14.1677 7.53605 14.1707 7.46763 14.1707C7.35611 14.1707 7.25293 14.1491 7.15703 14.1067C7.06144 14.0643 6.9771 14.0029 6.90363 13.9213C6.83219 13.8387 6.77347 13.7357 6.72874 13.6103C6.68634 13.4871 6.66415 13.3434 6.66415 13.1776C6.66415 13.0201 6.68619 12.8811 6.72862 12.7593C6.77316 12.6359 6.83321 12.5337 6.90765 12.451C6.98359 12.3668 7.07366 12.3028 7.17875 12.2586L7.17875 12.2586L7.17977 12.2582C7.28447 12.2127 7.4018 12.1892 7.53317 12.1892C7.61119 12.1892 7.67593 12.1951 7.72842 12.2059L7.72842 12.2059L7.7289 12.206C7.78672 12.2175 7.83401 12.2315 7.87178 12.2471L7.87175 12.2472L7.87559 12.2486C7.91685 12.2638 7.94918 12.28 7.97392 12.2965L7.97383 12.2966L7.97851 12.2993C8.01155 12.3189 8.0412 12.3374 8.06754 12.355L8.0675 12.355L8.07087 12.3571C8.10096 12.3755 8.12997 12.3917 8.15787 12.4057L8.20259 12.3162L8.15787 12.4057C8.19681 12.4251 8.23866 12.435 8.28217 12.435C8.33636 12.435 8.39288 12.4241 8.43962 12.3899L8.43967 12.3899L8.44295 12.3873C8.47189 12.3642 8.49771 12.3385 8.51997 12.3101L8.52 12.3102L8.52153 12.3081L8.78836 11.95L8.83878 11.8823L8.78054 11.8212C8.71117 11.7485 8.63213 11.683 8.5438 11.6246C8.45504 11.5644 8.3584 11.5136 8.25415 11.4722C8.1495 11.4291 8.03733 11.3962 7.91792 11.3732C7.79838 11.3484 7.6716 11.3362 7.53785 11.3362C7.26316 11.3362 7.00949 11.3809 6.77803 11.4718C6.54789 11.5622 6.34828 11.6895 6.1805 11.8539L6.1805 11.8539L6.18015 11.8543C6.01411 12.0187 5.8851 12.2142 5.79289 12.4397C5.70002 12.6652 5.65429 12.9116 5.65429 13.1776C5.65429 13.4376 5.69413 13.6808 5.77482 13.9064L5.7749 13.9067C5.8555 14.1304 5.97128 14.326 6.12271 14.4925L6.1227 14.4925L6.12341 14.4932C6.27688 14.6584 6.46242 14.7879 6.67873 14.882L6.67873 14.882L6.67957 14.8823C6.8997 14.9757 7.14578 15.0214 7.41614 15.0214C7.709 15.0214 7.96753 14.9745 8.18899 14.8772L8.18931 14.877C8.41209 14.7782 8.5979 14.6319 8.74546 14.4391L8.79733 14.3713L8.73853 14.3095L8.42488 13.9794ZM11.8428 12.442L11.8428 12.442L11.844 12.4433C11.9164 12.5252 11.9733 12.6273 12.0133 12.7518C12.0533 12.876 12.0741 13.0176 12.0741 13.1776C12.0741 13.3392 12.0533 13.4816 12.0133 13.6057C11.9733 13.7303 11.9162 13.8334 11.8435 13.9172L11.8434 13.9173C11.7726 13.999 11.6853 14.0627 11.58 14.1085C11.4758 14.1523 11.3545 14.1753 11.2144 14.1753H10.7854V12.1822H11.2144C11.3544 12.1822 11.4755 12.206 11.5795 12.2511L11.5795 12.2511L11.5805 12.2516C11.6852 12.2956 11.7721 12.359 11.8428 12.442ZM17.1808 11.5274C17.1979 11.5103 17.2167 11.4978 17.237 11.49C17.2572 11.4822 17.2799 11.4775 17.3048 11.4759C17.3314 11.4744 17.3618 11.4736 17.3961 11.4736H17.9H18L17.1808 11.5274Z" fill="#253031" stroke="#253031" stroke-width="0.2"/>
</svg>
