<svg width="24" height="24" viewBox="0 0 24 24" fill="none" xmlns="http://www.w3.org/2000/svg">
<path d="M12.3209 19.2016L14.2447 17.2778C15.6612 15.8613 17.8599 15.5907 19.5776 16.6213L19.8251 16.7698C20.0731 16.9186 20.2857 17.1196 20.4483 17.3588C21.0673 18.2695 20.8307 19.5096 19.92 20.1285L18.6918 20.9632C17.7882 21.5773 16.6338 21.688 15.6299 21.2567C13.0847 20.1632 10.4229 18.3091 7.6446 15.6943C4.81232 13.0288 2.90912 10.3458 1.93499 7.64524C1.58717 6.68101 1.72233 5.6085 2.29851 4.76071L3.2104 3.41896C3.37296 3.17976 3.58562 2.97878 3.83362 2.82998C4.77786 2.26344 6.0026 2.56962 6.56914 3.51386L6.71765 3.76137C7.74826 5.47907 7.47759 7.67776 6.06114 9.09421L4.13735 11.018" stroke="#253031" stroke-width="1.6" stroke-linecap="round"/>
<path d="M21.694 9.87781C20.5671 6.86405 18.1792 4.46567 15.1722 3.32481" stroke="#253031" stroke-width="1.6" stroke-linecap="round"/>
<path d="M18.2863 11.3C17.4799 9.13446 15.7625 7.41247 13.6 6.60001" stroke="#253031" stroke-width="1.6" stroke-linecap="round"/>
</svg>
