<svg width="24" height="24" viewBox="0 0 24 24" fill="none" xmlns="http://www.w3.org/2000/svg">
<path d="M11.4968 14.9959C11.3043 15.562 11.1999 16.1688 11.1999 16.8C11.1999 19.8928 13.7071 22.4 16.7999 22.4V22.4C19.8927 22.4 22.3999 19.8928 22.3999 16.8C22.3999 13.7072 19.8927 11.2 16.7999 11.2C16.2089 11.2 15.6392 11.2916 15.1044 11.4613" stroke="#253031" stroke-width="1.6" stroke-linecap="round"/>
<path d="M16.8 11.2V9.6117C16.8 9.35334 16.6752 9.11088 16.465 8.96071L14.5026 7.55902C14.2065 7.34753 13.805 7.36249 13.5255 7.59543L12.3958 8.53683C11.9933 8.87227 12.0163 9.49673 12.4444 9.7989C13.4567 10.5135 15.2155 11.7444 16.8 12.8004C19.2 14.4 18 16.4 18 16.4C18 16.4 16.8 18 12.9576 15.6C9.80913 13.6334 4.19438 12.4725 2.26927 12.1174C1.88266 12.0461 1.59998 11.7107 1.59998 11.3176L1.59998 5.99469C1.59998 5.2861 2.06604 4.66191 2.74543 4.46061L11.6601 1.81923C12.1276 1.68072 12.6327 1.76293 13.0322 2.04254L19.5965 6.63755C20.0895 6.98268 20.3472 7.57529 20.2633 8.17125L19.7246 12" stroke="#253031" stroke-width="1.6" stroke-linecap="round"/>
</svg>
