<svg width="24" height="24" viewBox="0 0 24 24" fill="none" xmlns="http://www.w3.org/2000/svg">
<path d="M4.97746 22.6976C4.69997 23.0414 4.75374 23.545 5.09756 23.8225C5.44138 24.1 5.94505 24.0463 6.22254 23.7024L4.97746 22.6976ZM8.00268 20.223L8.23276 19.4568L7.71782 19.3022L7.38014 19.7205L8.00268 20.223ZM14.4603 21.3986C14.8962 21.3262 15.1908 20.9141 15.1184 20.4783C15.0459 20.0424 14.6339 19.7478 14.198 19.8203L14.4603 21.3986ZM21.459 15.3219C21.2326 15.7013 21.3566 16.1924 21.736 16.4188C22.1153 16.6452 22.6065 16.5212 22.8329 16.1418L21.459 15.3219ZM3.50286 18.7855C3.84767 19.0618 4.35115 19.0062 4.6274 18.6614C4.90366 18.3166 4.84809 17.8131 4.50328 17.5369L3.50286 18.7855ZM6.22254 23.7024L8.62522 20.7254L7.38014 19.7205L4.97746 22.6976L6.22254 23.7024ZM7.77261 20.9892C9.08948 21.3846 10.5146 21.6 12 21.6V20C10.6689 20 9.39888 19.8069 8.23276 19.4568L7.77261 20.9892ZM12 21.6C12.8425 21.6 13.6655 21.5307 14.4603 21.3986L14.198 19.8203C13.4901 19.9379 12.7548 20 12 20V21.6ZM22.8329 16.1418C23.5773 14.8946 24 13.4894 24 12H22.4C22.4 13.1788 22.067 14.3031 21.459 15.3219L22.8329 16.1418ZM24 12C24 6.52908 18.4369 2.4 12 2.4V4C17.9342 4 22.4 7.7507 22.4 12H24ZM12 2.4C5.56305 2.4 -1.2219e-05 6.52908 -1.2219e-05 12H1.59999C1.59999 7.7507 6.06575 4 12 4V2.4ZM-1.2219e-05 12C-1.2219e-05 14.6875 1.37084 17.0774 3.50286 18.7855L4.50328 17.5369C2.67267 16.0702 1.59999 14.1105 1.59999 12H-1.2219e-05Z" fill="#253031"/>
<path fill-rule="evenodd" clip-rule="evenodd" d="M7.99999 12.8C8.66273 12.8 9.19999 12.2627 9.19999 11.6C9.19999 10.9373 8.66273 10.4 7.99999 10.4C7.33725 10.4 6.79999 10.9373 6.79999 11.6C6.79999 12.2627 7.33725 12.8 7.99999 12.8ZM12 12.8C12.6627 12.8 13.2 12.2627 13.2 11.6C13.2 10.9373 12.6627 10.4 12 10.4C11.3373 10.4 10.8 10.9373 10.8 11.6C10.8 12.2627 11.3373 12.8 12 12.8ZM17.2 11.6C17.2 12.2627 16.6627 12.8 16 12.8C15.3373 12.8 14.8 12.2627 14.8 11.6C14.8 10.9373 15.3373 10.4 16 10.4C16.6627 10.4 17.2 10.9373 17.2 11.6Z" fill="#253031"/>
<path d="M22.6665 20.2347C23.0074 19.6851 23.2 19.0613 23.2 18.4C23.2 16.1909 21.051 14.4 18.4 14.4C15.749 14.4 13.6 16.1909 13.6 18.4C13.6 20.6091 15.749 22.4 18.4 22.4C18.9609 22.4 19.4993 22.3198 19.9997 22.1725L21.6 23.2" stroke="#253031" stroke-width="1.6" stroke-linecap="round"/>
</svg>
