<svg width="24" height="24" viewBox="0 0 24 24" fill="none" xmlns="http://www.w3.org/2000/svg">
<path d="M2.72729 8.47274C2.28547 8.47274 1.92729 8.83091 1.92729 9.27274C1.92729 9.71456 2.28547 10.0727 2.72729 10.0727V8.47274ZM7.09093 22.3636L6.35119 22.6682C6.47439 22.9674 6.76569 23.163 7.08926 23.1636C7.41283 23.1643 7.70494 22.97 7.82939 22.6713L7.09093 22.3636ZM12.5455 9.27274L13.2839 9.58043C13.3868 9.33352 13.3595 9.05153 13.2111 8.82898C13.0627 8.60642 12.813 8.47274 12.5455 8.47274V9.27274ZM4.01249 12.7863C3.84427 12.3778 3.3767 12.1829 2.96815 12.3512C2.5596 12.5194 2.36478 12.987 2.53301 13.3955L4.01249 12.7863ZM2.72729 10.0727H12.5455V8.47274H2.72729V10.0727ZM11.807 8.96504L6.35247 22.056L7.82939 22.6713L13.2839 9.58043L11.807 8.96504ZM7.83067 22.059L4.01249 12.7863L2.53301 13.3955L6.35119 22.6682L7.83067 22.059Z" fill="#253031"/>
<path d="M21.2727 23.1636C21.7146 23.1636 22.0727 22.8055 22.0727 22.3636C22.0727 21.9218 21.7146 21.5636 21.2727 21.5636L21.2727 23.1636ZM16.9091 9.27274L17.6582 8.99184C17.5429 8.68453 17.2517 8.47878 16.9235 8.47287C16.5954 8.46696 16.2969 8.66208 16.1706 8.96505L16.9091 9.27274ZM11.4546 22.3636L10.7161 22.056C10.6132 22.3029 10.6405 22.5848 10.7889 22.8074C10.9373 23.03 11.1871 23.1636 11.4546 23.1636L11.4546 22.3636ZM19.4328 18.2809C19.5879 18.6946 20.049 18.9042 20.4627 18.7491C20.8764 18.5939 21.086 18.1328 20.9309 17.7191L19.4328 18.2809ZM21.2727 21.5636L11.4546 21.5636L11.4546 23.1636L21.2727 23.1636L21.2727 21.5636ZM12.193 22.6713L17.6476 9.58043L16.1706 8.96505L10.7161 22.056L12.193 22.6713ZM16.16 9.55364L19.4328 18.2809L20.9309 17.7191L17.6582 8.99184L16.16 9.55364Z" fill="#253031"/>
<path fill-rule="evenodd" clip-rule="evenodd" d="M7.5272 6.58183C8.85268 6.58183 9.9272 5.50731 9.9272 4.18183C9.9272 2.85635 8.85268 1.78183 7.5272 1.78183C6.20171 1.78183 5.1272 2.85635 5.1272 4.18183C5.1272 5.50731 6.20171 6.58183 7.5272 6.58183Z" stroke="#253031" stroke-width="1.6" stroke-linecap="round"/>
<path fill-rule="evenodd" clip-rule="evenodd" d="M16.9089 6.43635C18.2344 6.43635 19.3089 5.36184 19.3089 4.03635C19.3089 2.71087 18.2344 1.63635 16.9089 1.63635C15.5834 1.63635 14.5089 2.71087 14.5089 4.03635C14.5089 5.36184 15.5834 6.43635 16.9089 6.43635Z" stroke="#253031" stroke-width="1.6" stroke-linecap="round"/>
</svg>
