<svg width="24" height="26" viewBox="0 0 24 26" fill="none" xmlns="http://www.w3.org/2000/svg">
<path fill-rule="evenodd" clip-rule="evenodd" d="M16.4 4.4C17.2836 4.4 18 3.68366 18 2.8C18 1.91634 17.2836 1.2 16.4 1.2C15.5163 1.2 14.8 1.91634 14.8 2.8C14.8 3.68366 15.5163 4.4 16.4 4.4Z" fill="#253031" stroke="#253031" stroke-width="0.5" stroke-linecap="round"/>
<path fill-rule="evenodd" clip-rule="evenodd" d="M8.6 4.4C9.48366 4.4 10.2 3.68366 10.2 2.8C10.2 1.91634 9.48366 1.2 8.6 1.2C7.71634 1.2 7 1.91634 7 2.8C7 3.68366 7.71634 4.4 8.6 4.4Z" fill="#253031" stroke="#253031" stroke-width="0.5" stroke-linecap="round"/>
<path fill-rule="evenodd" clip-rule="evenodd" d="M16.4 18C17.2836 18 18 17.2837 18 16.4C18 15.5163 17.2836 14.8 16.4 14.8C15.5163 14.8 14.8 15.5163 14.8 16.4C14.8 17.2837 15.5163 18 16.4 18Z" fill="#253031" stroke="#253031" stroke-width="0.5" stroke-linecap="round"/>
<path fill-rule="evenodd" clip-rule="evenodd" d="M16.4 24.8C17.2836 24.8 18 24.0837 18 23.2C18 22.3163 17.2836 21.6 16.4 21.6C15.5163 21.6 14.8 22.3163 14.8 23.2C14.8 24.0837 15.5163 24.8 16.4 24.8Z" fill="#253031" stroke="#253031" stroke-width="0.5" stroke-linecap="round"/>
<path fill-rule="evenodd" clip-rule="evenodd" d="M8.6 18C9.48366 18 10.2 17.2837 10.2 16.4C10.2 15.5163 9.48366 14.8 8.6 14.8C7.71634 14.8 7 15.5163 7 16.4C7 17.2837 7.71634 18 8.6 18Z" fill="#253031" stroke="#253031" stroke-width="0.5" stroke-linecap="round"/>
<path fill-rule="evenodd" clip-rule="evenodd" d="M8.6 24.8C9.48366 24.8 10.2 24.0837 10.2 23.2C10.2 22.3163 9.48366 21.6 8.6 21.6C7.71634 21.6 7 22.3163 7 23.2C7 24.0837 7.71634 24.8 8.6 24.8Z" fill="#253031" stroke="#253031" stroke-width="0.5" stroke-linecap="round"/>
<path fill-rule="evenodd" clip-rule="evenodd" d="M16.4 11.2C17.2836 11.2 18 10.4837 18 9.6C18 8.71634 17.2836 8 16.4 8C15.5163 8 14.8 8.71634 14.8 9.6C14.8 10.4837 15.5163 11.2 16.4 11.2Z" fill="#253031" stroke="#253031" stroke-width="0.5" stroke-linecap="round"/>
<path fill-rule="evenodd" clip-rule="evenodd" d="M8.6 11.2C9.48366 11.2 10.2 10.4837 10.2 9.6C10.2 8.71634 9.48366 8 8.6 8C7.71634 8 7 8.71634 7 9.6C7 10.4837 7.71634 11.2 8.6 11.2Z" fill="#253031" stroke="#253031" stroke-width="0.5" stroke-linecap="round"/>
</svg>
