<svg width="24" height="24" viewBox="0 0 24 24" fill="none" xmlns="http://www.w3.org/2000/svg">
<rect x="1" y="3" width="6" height="18" rx="2.04545" stroke="#253031" stroke-width="1.6" stroke-linecap="round"/>
<rect x="7" y="3" width="6" height="18" rx="2.04545" stroke="#253031" stroke-width="1.6" stroke-linecap="round"/>
<path fill-rule="evenodd" clip-rule="evenodd" d="M3.99989 18.9999C4.44172 18.9999 4.79989 18.6418 4.79989 18.1999C4.79989 17.7581 4.44172 17.3999 3.99989 17.3999C3.55806 17.3999 3.19989 17.7581 3.19989 18.1999C3.19989 18.6418 3.55806 18.9999 3.99989 18.9999Z" fill="#253031"/>
<path fill-rule="evenodd" clip-rule="evenodd" d="M10.1 18.9999C10.5418 18.9999 10.9 18.6418 10.9 18.1999C10.9 17.7581 10.5418 17.3999 10.1 17.3999C9.65816 17.3999 9.29999 17.7581 9.29999 18.1999C9.29999 18.6418 9.65816 18.9999 10.1 18.9999Z" fill="#253031"/>
<rect x="13.4219" y="3.217" width="6.37818" height="19.1345" rx="2.04545" transform="rotate(-11 13.4219 3.217)" stroke="#253031" stroke-width="1.6" stroke-linecap="round"/>
<path fill-rule="evenodd" clip-rule="evenodd" d="M19.9262 19.853C20.3599 19.7687 20.6431 19.3487 20.5588 18.915C20.4745 18.4813 20.0546 18.1981 19.6209 18.2824C19.1872 18.3667 18.9039 18.7866 18.9882 19.2203C19.0725 19.654 19.4925 19.9373 19.9262 19.853Z" fill="#253031"/>
</svg>
