<svg width="24" height="24" viewBox="0 0 24 24" fill="none" xmlns="http://www.w3.org/2000/svg">
<path d="M16.2727 23.1636C16.7146 23.1636 17.0727 22.8055 17.0727 22.3636C17.0727 21.9218 16.7146 21.5636 16.2727 21.5636L16.2727 23.1636ZM11.9091 9.27273L12.6582 8.99183C12.5429 8.68452 12.2517 8.47877 11.9235 8.47286C11.5954 8.46695 11.2969 8.66207 11.1706 8.96504L11.9091 9.27273ZM6.45455 22.3636L5.71609 22.0559C5.61321 22.3029 5.64054 22.5848 5.78891 22.8074C5.93729 23.03 6.18707 23.1636 6.45455 23.1636L6.45455 22.3636ZM14.4328 18.2809C14.5879 18.6946 15.049 18.9042 15.4627 18.7491C15.8764 18.5939 16.086 18.1328 15.9309 17.7191L14.4328 18.2809ZM16.2727 21.5636L6.45455 21.5636L6.45455 23.1636L16.2727 23.1636L16.2727 21.5636ZM7.19302 22.6713L12.6476 9.58042L11.1706 8.96504L5.71609 22.0559L7.19302 22.6713ZM11.16 9.55363L14.4328 18.2809L15.9309 17.7191L12.6582 8.99183L11.16 9.55363Z" fill="#253031"/>
<path fill-rule="evenodd" clip-rule="evenodd" d="M11.9089 6.43638C13.2344 6.43638 14.3089 5.36186 14.3089 4.03638C14.3089 2.71089 13.2344 1.63638 11.9089 1.63638C10.5834 1.63638 9.50888 2.71089 9.50888 4.03638C9.50888 5.36186 10.5834 6.43638 11.9089 6.43638Z" stroke="#253031" stroke-width="1.6" stroke-linecap="round"/>
</svg>
