<svg width="24" height="24" viewBox="0 0 24 24" fill="none" xmlns="http://www.w3.org/2000/svg">
<path fill-rule="evenodd" clip-rule="evenodd" d="M5.59997 8.79999C6.48363 8.79999 7.19997 8.08365 7.19997 7.19999C7.19997 6.31634 6.48363 5.59999 5.59997 5.59999C4.71631 5.59999 3.99997 6.31634 3.99997 7.19999C3.99997 8.08365 4.71631 8.79999 5.59997 8.79999Z" fill="#253031"/>
<path fill-rule="evenodd" clip-rule="evenodd" d="M18.4 18.4C19.2836 18.4 20 17.6836 20 16.8C20 15.9163 19.2836 15.2 18.4 15.2C17.5163 15.2 16.8 15.9163 16.8 16.8C16.8 17.6836 17.5163 18.4 18.4 18.4Z" fill="#253031"/>
<rect x="1.60001" y="3.99998" width="20.8" height="6.4" rx="3.2" stroke="#253031" stroke-width="1.6" stroke-linecap="round"/>
<rect x="1.59998" y="13.6" width="20.8" height="6.4" rx="3.2" stroke="#253031" stroke-width="1.6" stroke-linecap="round"/>
</svg>
