<svg width="24" height="24" viewBox="0 0 24 24" fill="none" xmlns="http://www.w3.org/2000/svg">
<path d="M16.2585 13.781V11.4031C16.2585 11.1391 16.0445 10.9251 15.7805 10.9251C15.5164 10.9251 15.3024 11.1391 15.3024 11.4031V14.2189C15.3024 14.483 15.5164 14.6969 15.7805 14.6969C16.8244 14.6969 17.6739 15.5465 17.6739 16.5904C17.6739 16.8544 17.8879 17.0684 18.1519 17.0684C18.416 17.0684 18.63 16.8544 18.63 16.5904C18.63 15.1818 17.603 14.0091 16.2585 13.781Z" fill="#253031" stroke="#253031" stroke-width="0.346667"/>
<path d="M21.7096 5.08292C21.4566 5.08292 21.2167 5.1398 21.0018 5.24126V4.3092C21.0018 3.39167 20.2556 2.64542 19.3381 2.64542C19.0761 2.64542 18.8281 2.70642 18.6075 2.81474C18.4758 2.02796 17.7902 1.42667 16.9666 1.42667C16.143 1.42667 15.4574 2.02796 15.3257 2.81475C15.105 2.70642 14.857 2.64542 14.5951 2.64542C13.6776 2.64542 12.9313 3.39163 12.9313 4.3092V14.9148C12.9313 16.1452 13.3628 17.3285 14.1501 18.2675V22.0953C14.1501 22.3594 14.3641 22.5733 14.6281 22.5733H21.6765C21.9406 22.5733 22.1546 22.3594 22.1546 22.0953V18.2675C22.9419 17.3286 23.3733 16.1452 23.3733 14.9148V6.7467C23.3733 5.82913 22.6271 5.08292 21.7096 5.08292ZM14.5951 3.60146C14.9852 3.60146 15.3029 3.91909 15.3029 4.3092V7.67858C15.088 7.57721 14.848 7.52046 14.5951 7.52046C14.3422 7.52046 14.1022 7.57734 13.8874 7.6788V4.3092C13.8874 3.91909 14.205 3.60146 14.5951 3.60146ZM22.4173 14.9148C22.4173 15.9712 22.0281 16.9846 21.3215 17.7688C21.2424 17.8566 21.1985 17.9706 21.1985 18.0888V21.6173H15.1061V18.0888C15.1061 17.9706 15.0623 17.8566 14.9832 17.7688C14.2766 16.9846 13.8874 15.9712 13.8874 14.9148V9.1842C13.8874 8.79409 14.205 8.47646 14.5951 8.47646C14.9852 8.47646 15.3029 8.79409 15.3029 9.1842C15.3029 9.44824 15.5168 9.66222 15.7809 9.66222C16.0449 9.66222 16.2589 9.44824 16.2589 9.1842V3.09045C16.2589 2.70034 16.5765 2.38271 16.9667 2.38271C17.3568 2.38271 17.6744 2.70034 17.6744 3.09045V10.7812C17.6744 11.0453 17.8884 11.2593 18.1524 11.2593C18.4165 11.2593 18.6304 11.0453 18.6304 10.7812V4.3092C18.6304 3.91909 18.9481 3.60146 19.3382 3.60146C19.7283 3.60146 20.0459 3.91909 20.0459 4.3092V10.7812C20.0459 11.0453 20.2599 11.2593 20.5239 11.2593C20.788 11.2593 21.002 11.0453 21.002 10.7812V6.74666C21.002 6.35655 21.3196 6.03892 21.7097 6.03892C22.0998 6.03892 22.4173 6.35654 22.4173 6.7467V14.9148Z" fill="#253031" stroke="#253031" stroke-width="0.346667"/>
<path d="M10.9127 14.7415H10.9126V14.9148C10.9126 15.9712 10.5234 16.9846 9.81677 17.7688C9.73768 17.8566 9.69383 17.9706 9.69383 18.0888V21.6173H3.60143V18.0888C3.60143 17.9706 3.55759 17.8566 3.47849 17.7688C2.77185 16.9846 2.38268 15.9712 2.38268 14.9148V4.3092C2.38268 3.9191 2.70032 3.60146 3.09043 3.60146C3.48053 3.60146 3.79817 3.9191 3.79817 4.3092V10.7812C3.79817 11.0453 4.01215 11.2593 4.27619 11.2593C4.54023 11.2593 4.75421 11.0453 4.75421 10.7812V3.09045V3.09044C4.75418 2.70034 5.0718 2.38271 5.46191 2.38271C5.85202 2.38271 6.16965 2.70034 6.16965 3.09045V10.7812C6.16965 11.0453 6.38363 11.2593 6.64767 11.2593C6.91171 11.2593 7.12569 11.0453 7.12569 10.7812V4.3092C7.12569 3.91909 7.44333 3.60146 7.83343 3.60146C8.22354 3.60146 8.54118 3.9191 8.54118 4.3092V10.7812C8.54118 11.0453 8.75516 11.2593 9.0192 11.2593C9.28324 11.2593 9.49722 11.0453 9.49722 10.7812V6.74666C9.49722 6.35655 9.81485 6.03892 10.205 6.03892C10.5951 6.03892 10.9127 6.35655 10.9127 6.74666V14.7415ZM10.2049 5.08292C9.95194 5.08292 9.71198 5.1398 9.49714 5.24126V4.3092C9.49714 3.39167 8.75093 2.64542 7.83335 2.64542C7.57143 2.64542 7.32341 2.70642 7.10279 2.81474C6.97113 2.02796 6.28554 1.42667 5.46191 1.42667C4.63828 1.42667 3.95266 2.02796 3.82096 2.81475C3.60034 2.70642 3.35233 2.64542 3.09043 2.64542C2.17285 2.64542 1.42664 3.39163 1.42664 4.3092V14.9148C1.42664 16.1452 1.85811 17.3285 2.64539 18.2675V22.0953C2.64539 22.3594 2.85937 22.5733 3.12341 22.5733H10.1719C10.4359 22.5733 10.6499 22.3594 10.6499 22.0953V18.2675C11.4372 17.3286 11.8686 16.1452 11.8686 14.9148V6.7467C11.8686 5.82913 11.1224 5.08292 10.2049 5.08292Z" fill="#253031" stroke="#253031" stroke-width="0.346667"/>
</svg>
