<svg xmlns="http://www.w3.org/2000/svg" viewBox="0 0 346 249" width="346" height="249">
	<style>
		tspan { white-space:pre }
		.shp0 { fill: #f6f6f6;stroke: #000000;stroke-width: 0.903 } 
		.shp1 { fill: none;stroke: #000000;stroke-width: 0.903 } 
	</style>
	<path id="Layer" class="shp0" d="M257.07 162.93L232.5 162.93L232.5 116.59L280.74 116.59L280.74 161.78L280.74 162.23L281.19 162.23L283.01 162.23L283.46 162.23L283.46 161.78L283.46 116.59L344.89 116.59L344.89 162.85L302.8 162.85L302.35 162.85L302.35 163.3L302.35 164.9L302.35 165.35L302.8 165.35L344.89 165.35L344.89 240.28L230.91 240.28L230.91 182.54L230.91 182.09L230.46 182.09L225 182.09L224.54 182.09L224.54 182.54L224.54 240.28L147.19 240.28L147.19 182.54L147.19 182.09L146.74 182.09L140.82 182.09L140.37 182.09L140.37 182.54L140.37 247.81L0.45 247.81L0.45 106.78L60.51 106.78L60.97 106.78L60.97 106.33L60.97 101.54L60.97 101.09L60.51 101.09L0.45 101.09L0.45 0.45L164.53 0.45L230 64.31L230 116.14L230 164.97L230 165.43L230.46 165.43L258.67 165.43L259.12 165.43L259.12 164.97L259.12 163.38L259.12 162.93L258.67 162.93L257.07 162.93Z" />
	<path id="Layer" class="shp1" d="M161.98 232.74L211.12 232.74L211.12 235.49L161.98 235.49L161.98 232.74Z" />
	<path id="Layer" class="shp1" d="M238.42 194.86L238.42 228.64L235.69 228.64L235.69 194.86L238.42 194.86Z" />
	<path id="Layer" class="shp1" d="M294.84 184.37L294.84 205.37L273.91 205.37L273.91 184.37L294.84 184.37Z" />
	<path id="Layer" class="shp1" d="M33.55 114.45L33.55 135.55L5.45 135.55L5.45 114.45L33.55 114.45Z" />
	<path id="Layer" class="shp1" d="M134.88 187.1L134.88 208.11L119.86 208.11L119.86 187.1L134.88 187.1Z" />
	<path id="Layer" class="shp1" d="M134.88 211.44L134.88 232.45L119.86 232.45L119.86 211.44L134.88 211.44Z" />
	<path id="Layer" class="shp1" d="M20.02 70.43L20.02 91.43L5 91.43L5 70.43L20.02 70.43Z" />
	<path id="Layer" class="shp1" d="M20.02 40.92L20.02 61.92L5 61.92L5 40.92L20.02 40.92Z" />
	<path id="Layer" class="shp1" d="M20.02 14.4L20.02 35.41L5 35.41L5 14.4L20.02 14.4Z" />
	<path id="Layer" class="shp1" d="M53.69 114.09L53.69 135.09L38.67 135.09L38.67 114.09L53.69 114.09Z" />
	<path id="Layer" class="shp1" d="M338.23 170.22C339.14 170.22 339.89 170.96 339.89 171.87L339.89 233.83C339.89 234.75 339.14 235.49 338.23 235.49L299.9 235.49C298.99 235.49 298.25 234.75 298.25 233.83L298.25 224.13C298.25 223.21 298.99 222.47 299.9 222.47L324.13 222.47C325.54 222.47 326.69 221.33 326.69 219.91L326.69 171.87C326.69 170.96 327.43 170.22 328.34 170.22L338.23 170.22Z" />
	<path id="Layer" class="shp1" d="M112.97 107.06L156.98 66.05L174.33 84.78L130.32 125.79L112.97 107.06Z" />
	<path id="Layer" class="shp1" d="M77.94 71.92L121.94 30.91L139.29 49.64L95.29 90.65L77.94 71.92Z" />
	<path id="Layer" class="shp1" d="M150.74 143.57L194.74 102.56L212.09 121.29L168.09 162.3L150.74 143.57Z" />
	<path id="Layer" class="shp1" d="M164.1 13.87L215.9 65.83L213.97 67.78L162.16 15.82L164.1 13.87Z" />
	<path id="Layer" class="shp1" d="M192.47 218.82C192.47 222.48 189.51 225.45 185.87 225.45C182.22 225.45 179.27 222.48 179.27 218.82C179.27 215.17 182.22 212.2 185.87 212.2C189.51 212.2 192.47 215.17 192.47 218.82Z" />
	<path id="Layer" class="shp1" d="M112 247.5C112 234.52 101.48 224 88.5 224C75.52 224 65 234.52 65 247.5" />
</svg>