<svg width="24" height="24" viewBox="0 0 24 24" fill="none" xmlns="http://www.w3.org/2000/svg">
<circle cx="12" cy="12" r="11.25" stroke="#253031" stroke-width="1.5"/>
<path d="M13.0983 16.368C13.0812 16.7522 13.3751 16.9827 13.9801 17.0593C13.9982 17.0616 14.0165 17.0638 14.035 17.0658C14.2854 17.0929 14.4903 17.2921 14.4903 17.544C14.4903 17.7958 14.2861 18 14.0343 18H13.9801H10.017H9.98627C9.73443 18 9.53027 17.7958 9.53027 17.544C9.53027 17.2921 9.73525 17.0932 9.98541 17.0641C9.99603 17.0629 10.0066 17.0616 10.017 17.0603C10.6099 16.9846 10.9063 16.7538 10.9063 16.368V11.504C10.9063 11.1192 10.6242 10.8853 10.06 10.8022C10.03 10.7978 9.99907 10.7938 9.96738 10.7902C9.72706 10.7632 9.53027 10.5719 9.53027 10.3301C9.53027 10.0682 9.74254 9.85597 10.0044 9.85597H10.3711H12.5273H12.5656C12.8598 9.85597 13.0983 10.0945 13.0983 10.3887V16.368ZM13.2903 7.16797C13.2903 7.5413 13.1569 7.86663 12.8903 8.14397C12.6343 8.41063 12.3143 8.54397 11.9303 8.54397C11.7383 8.54397 11.5569 8.50663 11.3863 8.43197C11.2263 8.3573 11.0823 8.2613 10.9543 8.14397C10.8369 8.01597 10.7409 7.87197 10.6663 7.71197C10.5916 7.5413 10.5543 7.35997 10.5543 7.16797C10.5543 6.78397 10.6876 6.46397 10.9543 6.20797C11.2316 5.9413 11.5569 5.80797 11.9303 5.80797C12.3036 5.80797 12.6236 5.9413 12.8903 6.20797C13.1569 6.47463 13.2903 6.79463 13.2903 7.16797Z" fill="#253031"/>
</svg>
