<svg width="24" height="24" viewBox="0 0 24 24" fill="none" xmlns="http://www.w3.org/2000/svg">
<path d="M8.86189 16.9749C5.10102 17.4083 3.20007 18.599 3.20007 20C3.20007 21.7673 6.69814 23.2 12.0001 23.2C17.302 23.2 20.8001 21.7673 20.8001 20C20.8001 18.6215 18.9853 17.4466 15.3188 16.9964" stroke="#253031" stroke-width="1.6" stroke-linecap="round"/>
<path fill-rule="evenodd" clip-rule="evenodd" d="M11.4734 19.5093C11.7701 19.7913 12.23 19.7913 12.5267 19.5093C14.3084 17.8157 20.0001 12.1177 20.0001 8.44063C20.0001 4.08126 16.8001 0.800001 12.0001 0.800001C7.20006 0.800001 4.00006 4.08126 4.00006 8.44063C4.00006 12.1177 9.6917 17.8157 11.4734 19.5093Z" stroke="#253031" stroke-width="1.6" stroke-linecap="round"/>
<path fill-rule="evenodd" clip-rule="evenodd" d="M12 10.4C13.3255 10.4 14.4 9.32548 14.4 8C14.4 6.67452 13.3255 5.6 12 5.6C10.6746 5.6 9.60004 6.67452 9.60004 8C9.60004 9.32548 10.6746 10.4 12 10.4Z" stroke="#253031" stroke-width="1.6" stroke-linecap="round"/>
</svg>
