<svg width="24" height="24" viewBox="0 0 24 24" fill="none" xmlns="http://www.w3.org/2000/svg">
<path d="M7.72729 8.52274C7.31308 8.52274 6.97729 8.85852 6.97729 9.27274C6.97729 9.68695 7.31308 10.0227 7.72729 10.0227V8.52274ZM12.0909 22.3636L11.3974 22.6492C11.5129 22.9297 11.786 23.113 12.0894 23.1136C12.3927 23.1143 12.6666 22.9321 12.7832 22.6521L12.0909 22.3636ZM17.5455 9.27274L18.2378 9.5612C18.3342 9.32972 18.3086 9.06536 18.1695 8.85671C18.0304 8.64806 17.7962 8.52274 17.5455 8.52274V9.27274ZM8.96626 12.8054C8.80855 12.4223 8.3702 12.2397 7.98719 12.3974C7.60417 12.5551 7.42153 12.9935 7.57924 13.3765L8.96626 12.8054ZM7.72729 10.0227H17.5455V8.52274H7.72729V10.0227ZM16.8532 8.98427L11.3986 22.0752L12.7832 22.6521L18.2378 9.5612L16.8532 8.98427ZM12.7844 22.0781L8.96626 12.8054L7.57924 13.3765L11.3974 22.6492L12.7844 22.0781Z" fill="#253031"/>
<path fill-rule="evenodd" clip-rule="evenodd" d="M12.5273 6.58183C13.8527 6.58183 14.9273 5.50731 14.9273 4.18183C14.9273 2.85635 13.8527 1.78183 12.5273 1.78183C11.2018 1.78183 10.1273 2.85635 10.1273 4.18183C10.1273 5.50731 11.2018 6.58183 12.5273 6.58183Z" stroke="#253031" stroke-width="1.5" stroke-linecap="round"/>
</svg>
