<svg width="24" height="24" viewBox="0 0 24 24" fill="none" xmlns="http://www.w3.org/2000/svg">
<path d="M20.6364 7.05783L20.5586 7.17877L20.6364 7.05783C18.0551 5.39851 15.0687 4.52134 12 4.52134C8.93143 4.52134 5.94494 5.39851 3.36371 7.05783L3.44145 7.17877L3.36371 7.05783L3.02125 7.27799H2.92593C1.50889 7.27799 0.356235 8.43058 0.356235 9.84754C0.356235 11.1787 1.3733 12.2763 2.67125 12.4046C3.21507 16.7614 6.94068 20.1437 11.4426 20.1437H12.5576C17.0595 20.1437 20.7851 16.7614 21.3289 12.4046C22.6268 12.2763 23.6438 11.1787 23.6438 9.84754C23.6438 8.43058 22.4911 7.27799 21.0741 7.27799H20.9788L20.6364 7.05783ZM19.9951 8.05547L20.0728 7.93453L19.9951 8.05547L20.2117 8.19474V11.3035C20.2117 15.524 16.7779 18.9578 12.5575 18.9578H11.4425C7.22207 18.9578 3.78826 15.524 3.78826 11.3035V8.19477L4.00494 8.05546C4.00494 8.05546 4.00494 8.05546 4.00494 8.05546C8.86159 4.93319 15.1383 4.93319 19.9951 8.05547ZM1.54212 9.84754C1.54212 9.19633 1.99492 8.64859 2.60229 8.50254V11.1926C1.99493 11.0466 1.54212 10.4988 1.54212 9.84754ZM22.4578 9.84754C22.4578 10.4988 22.005 11.0465 21.3977 11.1926V8.50258C22.005 8.64863 22.4578 9.19633 22.4578 9.84754Z" fill="#253031" stroke="#253031" stroke-width="0.287529"/>
<path d="M17.8014 10.0841L17.8013 10.0841C16.0675 8.9695 14.0614 8.38028 12.0002 8.38028C9.93904 8.38028 7.93292 8.96945 6.1991 10.0841L6.19909 10.0841C5.92361 10.2612 5.84384 10.628 6.02092 10.9035L6.02092 10.9035C6.19801 11.179 6.56492 11.2588 6.84037 11.0817C9.97475 9.06669 14.0256 9.06669 17.1601 11.0817L17.1601 11.0817C17.2591 11.1453 17.3704 11.1759 17.4803 11.1759C17.6748 11.1759 17.8661 11.0799 17.9795 10.9035C18.1566 10.628 18.0769 10.2612 17.8014 10.0841Z" fill="#253031" stroke="#253031" stroke-width="0.287529"/>
<path d="M7.64617 12.7184L7.64618 12.7184C10.291 11.0181 13.7088 11.0181 16.3536 12.7184L16.2759 12.8393L16.3536 12.7184C16.6291 12.8955 16.7089 13.2624 16.5317 13.5379C16.4183 13.7143 16.2271 13.8102 16.0325 13.8102C15.9226 13.8102 15.8113 13.7797 15.7123 13.716L15.7123 13.716C13.4572 12.2662 10.5425 12.2662 8.28746 13.716C8.28746 13.716 8.28746 13.716 8.28745 13.716L8.20971 13.5951C8.00109 13.7292 7.72307 13.6688 7.58893 13.4601C7.45479 13.2514 7.51521 12.9735 7.72392 12.8393L7.64617 12.7184ZM7.64617 12.7184C7.3707 12.8955 7.29092 13.2624 7.46799 13.5378L7.64617 12.7184Z" fill="#253031" stroke="#253031" stroke-width="0.287529"/>
</svg>
