<svg width="24" height="24" viewBox="0 0 24 24" fill="none" xmlns="http://www.w3.org/2000/svg">
<path fill-rule="evenodd" clip-rule="evenodd" d="M4.80001 13.6C5.68367 13.6 6.40001 12.8837 6.40001 12C6.40001 11.1163 5.68367 10.4 4.80001 10.4C3.91636 10.4 3.20001 11.1163 3.20001 12C3.20001 12.8837 3.91636 13.6 4.80001 13.6Z" fill="#253031" stroke="#253031" stroke-width="0.5" stroke-linecap="round"/>
<path fill-rule="evenodd" clip-rule="evenodd" d="M19.2 13.6C20.0837 13.6 20.8 12.8837 20.8 12C20.8 11.1163 20.0837 10.4 19.2 10.4C18.3164 10.4 17.6 11.1163 17.6 12C17.6 12.8837 18.3164 13.6 19.2 13.6Z" fill="#253031" stroke="#253031" stroke-width="0.5" stroke-linecap="round"/>
<path fill-rule="evenodd" clip-rule="evenodd" d="M12 13.6C12.8836 13.6 13.6 12.8837 13.6 12C13.6 11.1163 12.8836 10.4 12 10.4C11.1163 10.4 10.4 11.1163 10.4 12C10.4 12.8837 11.1163 13.6 12 13.6Z" fill="#253031" stroke="#253031" stroke-width="0.5" stroke-linecap="round"/>
</svg>
