<svg width="24" height="24" viewBox="0 0 24 24" fill="none" xmlns="http://www.w3.org/2000/svg">
<path fill-rule="evenodd" clip-rule="evenodd" d="M12.0566 0.856571C12.0254 0.825329 11.9747 0.82533 11.9435 0.856572L8.13663 4.66343C8.08623 4.71383 8.12193 4.8 8.1932 4.8H15.8069C15.8782 4.8 15.9139 4.71383 15.8635 4.66343L12.0566 0.856571Z" stroke="#253031" stroke-width="1.6" stroke-linecap="round"/>
<path fill-rule="evenodd" clip-rule="evenodd" d="M12.0566 23.1434C12.0254 23.1747 11.9747 23.1747 11.9435 23.1434L8.13663 19.3366C8.08623 19.2862 8.12193 19.2 8.1932 19.2H15.8069C15.8782 19.2 15.9139 19.2862 15.8635 19.3366L12.0566 23.1434Z" stroke="#253031" stroke-width="1.6" stroke-linecap="round"/>
<path fill-rule="evenodd" clip-rule="evenodd" d="M4.80005 15.8068C4.80005 15.8781 4.71388 15.9138 4.66348 15.8634L0.856617 12.0566C0.825375 12.0253 0.825375 11.9747 0.856617 11.9434L4.66348 8.13655C4.71388 8.08616 4.80005 8.12185 4.80005 8.19312V15.8068Z" stroke="#253031" stroke-width="1.6" stroke-linecap="round"/>
<path fill-rule="evenodd" clip-rule="evenodd" d="M19.2 15.8068C19.2 15.8781 19.2862 15.9138 19.3366 15.8634L23.1434 12.0566C23.1747 12.0253 23.1747 11.9747 23.1434 11.9434L19.3366 8.13655C19.2862 8.08616 19.2 8.12185 19.2 8.19312V15.8068Z" stroke="#253031" stroke-width="1.6" stroke-linecap="round"/>
</svg>
