<svg width="24" height="24" viewBox="0 0 24 24" fill="none" xmlns="http://www.w3.org/2000/svg">
<path fill-rule="evenodd" clip-rule="evenodd" d="M5.20002 23.2C6.74642 23.2 8.00002 21.9464 8.00002 20.4C8.00002 18.8536 6.74642 17.6 5.20002 17.6C3.65363 17.6 2.40002 18.8536 2.40002 20.4C2.40002 21.9464 3.65363 23.2 5.20002 23.2Z" stroke="#253031" stroke-width="1.6" stroke-linecap="round"/>
<path fill-rule="evenodd" clip-rule="evenodd" d="M18 20C19.5464 20 20.8 18.7464 20.8 17.2C20.8 15.6536 19.5464 14.4 18 14.4C16.4536 14.4 15.2 15.6536 15.2 17.2C15.2 18.7464 16.4536 20 18 20Z" stroke="#253031" stroke-width="1.6" stroke-linecap="round"/>
<path d="M20.8 17.2V2.6419C20.8 1.54351 19.7186 0.771739 18.6799 1.1288L9.07987 4.4288C8.43379 4.65089 8 5.25871 8 5.9419L8 20.4" stroke="#253031" stroke-width="1.6" stroke-linecap="round"/>
<path d="M8.40002 10L20.8 5.60001" stroke="#253031" stroke-width="1.6" stroke-linecap="round"/>
</svg>
