<svg width="24" height="24" viewBox="0 0 24 24" fill="none" xmlns="http://www.w3.org/2000/svg">
<path d="M9.60001 20.8C9.60001 22.1255 10.6745 23.2 12 23.2C13.3255 23.2 14.4 22.1255 14.4 20.8" stroke="#253031" stroke-width="1.6" stroke-linecap="round"/>
<path fill-rule="evenodd" clip-rule="evenodd" d="M11.8918 4.00005C8.99299 4.00005 6.55777 6.17967 6.23765 9.06071L5.59995 14.8L3.44239 18.396C3.31161 18.6139 3.39374 18.8942 3.62666 18.996C4.77904 19.4996 8.1294 20.8 12 20.8C15.8705 20.8 19.2209 19.4996 20.3732 18.996C20.6062 18.8942 20.6883 18.6139 20.5575 18.396L18.4 14.8L17.5192 8.85525C17.106 6.0658 14.7117 4.00005 11.8918 4.00005V4.00005Z" stroke="#253031" stroke-width="1.6" stroke-linecap="round"/>
<path fill-rule="evenodd" clip-rule="evenodd" d="M12.0002 3.99999C12.8839 3.99999 13.6002 3.28364 13.6002 2.39999C13.6002 1.51633 12.8839 0.799988 12.0002 0.799988C11.1166 0.799988 10.4002 1.51633 10.4002 2.39999C10.4002 3.28364 11.1166 3.99999 12.0002 3.99999Z" stroke="#253031" stroke-width="1.6" stroke-linecap="round"/>
<path d="M5.59995 14.8C5.59995 14.8 8.39995 16 11.9999 16C15.5999 16 18.3999 14.8 18.3999 14.8" stroke="#253031" stroke-width="1.6" stroke-linecap="round"/>
</svg>
