<svg width="24" height="24" viewBox="0 0 24 24" fill="none" xmlns="http://www.w3.org/2000/svg">
<path fill-rule="evenodd" clip-rule="evenodd" d="M0.799988 5.6C0.799988 4.27451 1.8745 3.2 3.19999 3.2H20.8C22.1255 3.2 23.2 4.27451 23.2 5.6V16.8C23.2 18.1255 22.1255 19.2 20.8 19.2H16.0147C15.5028 19.2 15.0219 19.4449 14.7208 19.8589L12.647 22.7104C12.3275 23.1497 11.6725 23.1497 11.353 22.7104L9.27921 19.8589C8.97812 19.4449 8.49713 19.2 7.98523 19.2H3.19999C1.8745 19.2 0.799988 18.1255 0.799988 16.8V5.6Z" stroke="#253031" stroke-width="1.6" stroke-linecap="round"/>
<path d="M4.90722 12.7936H5.91522V10.1476C5.91522 10.018 5.91882 9.8824 5.92602 9.7408L5.33202 10.234C5.29362 10.2652 5.25522 10.288 5.21682 10.3024C5.17842 10.3144 5.14122 10.3204 5.10522 10.3204C5.04282 10.3204 4.98642 10.3072 4.93602 10.2808C4.88802 10.252 4.85202 10.222 4.82802 10.1908L4.47522 9.7228L6.10962 8.3512H7.03122V12.7936H7.89522V13.6H4.90722V12.7936Z" fill="#253031"/>
<path d="M11.9438 8.2972C12.203 8.2972 12.4358 8.3356 12.6422 8.4124C12.851 8.4868 13.0286 8.5912 13.175 8.7256C13.3214 8.86 13.433 9.0208 13.5098 9.208C13.589 9.3928 13.6286 9.5968 13.6286 9.82C13.6286 10.012 13.601 10.1896 13.5458 10.3528C13.493 10.516 13.4198 10.672 13.3262 10.8208C13.2326 10.9672 13.1234 11.11 12.9986 11.2492C12.8762 11.386 12.7454 11.5252 12.6062 11.6668L11.5802 12.718C11.7122 12.6796 11.8418 12.6496 11.969 12.628C12.0986 12.604 12.2198 12.592 12.3326 12.592H13.3118C13.4318 12.592 13.5266 12.6256 13.5962 12.6928C13.6658 12.7576 13.7006 12.844 13.7006 12.952V13.6H10.0142V13.24C10.0142 13.1704 10.0286 13.096 10.0574 13.0168C10.0862 12.9376 10.1366 12.8656 10.2086 12.8008L11.7206 11.278C11.8502 11.1484 11.963 11.0248 12.059 10.9072C12.155 10.7896 12.2342 10.6744 12.2966 10.5616C12.359 10.4464 12.4058 10.3324 12.437 10.2196C12.4682 10.1044 12.4838 9.9832 12.4838 9.856C12.4838 9.6472 12.4334 9.4876 12.3326 9.3772C12.2342 9.2644 12.083 9.208 11.879 9.208C11.795 9.208 11.7182 9.22 11.6486 9.244C11.579 9.268 11.5166 9.3004 11.4614 9.3412C11.4062 9.382 11.3582 9.43 11.3174 9.4852C11.279 9.5404 11.2478 9.6004 11.2238 9.6652C11.1854 9.7732 11.1362 9.8512 11.0762 9.8992C11.0186 9.9472 10.9394 9.9712 10.8386 9.9712C10.8146 9.9712 10.7882 9.97 10.7594 9.9676C10.733 9.9652 10.7054 9.9616 10.6766 9.9568L10.0862 9.8524C10.1246 9.5908 10.1978 9.3628 10.3058 9.1684C10.4162 8.974 10.5518 8.812 10.7126 8.6824C10.8758 8.5528 11.0618 8.4568 11.2706 8.3944C11.4794 8.3296 11.7038 8.2972 11.9438 8.2972Z" fill="#253031"/>
<path d="M17.8211 8.2972C18.0803 8.2972 18.3107 8.3344 18.5123 8.4088C18.7139 8.4808 18.8843 8.5792 19.0235 8.704C19.1627 8.8288 19.2683 8.974 19.3403 9.1396C19.4123 9.3028 19.4483 9.4756 19.4483 9.658C19.4483 9.8236 19.4315 9.97 19.3979 10.0972C19.3643 10.222 19.3139 10.3312 19.2467 10.4248C19.1819 10.516 19.1003 10.594 19.0019 10.6588C18.9059 10.7236 18.7955 10.7776 18.6707 10.8208C19.2515 11.0224 19.5419 11.4172 19.5419 12.0052C19.5419 12.2836 19.4915 12.526 19.3907 12.7324C19.2899 12.9388 19.1543 13.1104 18.9839 13.2472C18.8159 13.384 18.6203 13.4872 18.3971 13.5568C18.1739 13.624 17.9411 13.6576 17.6987 13.6576C17.4491 13.6576 17.2271 13.6312 17.0327 13.5784C16.8383 13.5232 16.6655 13.4392 16.5143 13.3264C16.3631 13.2112 16.2299 13.0648 16.1147 12.8872C16.0019 12.7096 15.9035 12.4984 15.8195 12.2536L16.3163 12.052C16.3595 12.0328 16.4015 12.0196 16.4423 12.0124C16.4855 12.0052 16.5275 12.0016 16.5683 12.0016C16.6451 12.0016 16.7135 12.0172 16.7735 12.0484C16.8359 12.0772 16.8827 12.1204 16.9139 12.178C17.0219 12.3772 17.1359 12.5224 17.2559 12.6136C17.3783 12.7024 17.5211 12.7468 17.6843 12.7468C17.8091 12.7468 17.9171 12.7264 18.0083 12.6856C18.1019 12.6424 18.1787 12.5884 18.2387 12.5236C18.3011 12.4564 18.3479 12.3808 18.3791 12.2968C18.4103 12.2128 18.4259 12.1276 18.4259 12.0412C18.4259 11.9284 18.4175 11.8276 18.4007 11.7388C18.3863 11.6476 18.3431 11.5696 18.2711 11.5048C18.1991 11.44 18.0899 11.3908 17.9435 11.3572C17.7995 11.3212 17.5979 11.3032 17.3387 11.3032V10.5328C17.5571 10.5328 17.7335 10.516 17.8679 10.4824C18.0023 10.4488 18.1055 10.4032 18.1775 10.3456C18.2519 10.2856 18.3011 10.2136 18.3251 10.1296C18.3491 10.0456 18.3611 9.9532 18.3611 9.8524C18.3611 9.646 18.3107 9.4876 18.2099 9.3772C18.1115 9.2644 17.9603 9.208 17.7563 9.208C17.6723 9.208 17.5955 9.22 17.5259 9.244C17.4563 9.268 17.3939 9.3004 17.3387 9.3412C17.2835 9.382 17.2355 9.43 17.1947 9.4852C17.1563 9.5404 17.1251 9.6004 17.1011 9.6652C17.0627 9.7732 17.0135 9.8512 16.9535 9.8992C16.8959 9.9472 16.8167 9.9712 16.7159 9.9712C16.6919 9.9712 16.6655 9.97 16.6367 9.9676C16.6103 9.9652 16.5827 9.9616 16.5539 9.9568L15.9635 9.8524C16.0019 9.5908 16.0751 9.3628 16.1831 9.1684C16.2935 8.974 16.4291 8.812 16.5899 8.6824C16.7531 8.5528 16.9391 8.4568 17.1479 8.3944C17.3567 8.3296 17.5811 8.2972 17.8211 8.2972Z" fill="#253031"/>
</svg>
