<svg width="24" height="24" viewBox="0 0 24 24" fill="none" xmlns="http://www.w3.org/2000/svg">
<path d="M1.27112 14.5115H2.95503V10.0912C2.95503 9.87468 2.96105 9.64816 2.97307 9.41161L1.98077 10.2355C1.91662 10.2876 1.85247 10.3257 1.78832 10.3498C1.72417 10.3698 1.66203 10.3799 1.60189 10.3799C1.49764 10.3799 1.40342 10.3578 1.31923 10.3137C1.23904 10.2656 1.1789 10.2155 1.13881 10.1634L0.549438 9.38154L3.27979 7.09021H4.81937V14.5115H6.26272V15.8586H1.27112V14.5115Z" fill="#253031"/>
<path d="M11.9003 7C12.3333 7 12.7223 7.06415 13.0671 7.19245C13.4159 7.31674 13.7126 7.49114 13.9571 7.71566C14.2017 7.94019 14.3881 8.20881 14.5164 8.52154C14.6487 8.83026 14.7149 9.17105 14.7149 9.54391C14.7149 9.86466 14.6688 10.1614 14.5766 10.434C14.4884 10.7066 14.3661 10.9672 14.2097 11.2158C14.0533 11.4604 13.8709 11.6989 13.6624 11.9315C13.458 12.16 13.2395 12.3925 13.0069 12.6291L11.2929 14.3852C11.5134 14.321 11.7299 14.2709 11.9424 14.2348C12.1589 14.1947 12.3614 14.1747 12.5499 14.1747H14.1857C14.3861 14.1747 14.5445 14.2308 14.6608 14.3431C14.777 14.4513 14.8352 14.5957 14.8352 14.7761V15.8586H8.67685V15.2572C8.67685 15.1409 8.7009 15.0166 8.74901 14.8843C8.79713 14.752 8.88132 14.6317 9.0016 14.5235L11.5275 11.9796C11.744 11.7631 11.9324 11.5566 12.0928 11.3601C12.2532 11.1637 12.3855 10.9712 12.4897 10.7828C12.594 10.5903 12.6721 10.3999 12.7243 10.2115C12.7764 10.019 12.8024 9.81655 12.8024 9.60405C12.8024 9.25524 12.7182 8.98862 12.5499 8.80419C12.3855 8.61576 12.1329 8.52154 11.7921 8.52154C11.6518 8.52154 11.5235 8.54158 11.4072 8.58168C11.2909 8.62177 11.1867 8.6759 11.0945 8.74405C11.0023 8.81221 10.9221 8.8924 10.8539 8.98461C10.7898 9.07683 10.7376 9.17706 10.6975 9.28531C10.6334 9.46573 10.5512 9.59604 10.451 9.67622C10.3547 9.75641 10.2224 9.7965 10.0541 9.7965C10.014 9.7965 9.96985 9.7945 9.92174 9.79049C9.87764 9.78648 9.83153 9.78047 9.78342 9.77245L8.79713 9.59804C8.86128 9.16102 8.98356 8.78014 9.16398 8.45538C9.34841 8.13063 9.57494 7.86 9.84356 7.6435C10.1162 7.42699 10.4269 7.26662 10.7757 7.16238C11.1245 7.05413 11.4994 7 11.9003 7Z" fill="#253031"/>
<path d="M20.5931 7C21.0261 7 21.411 7.06214 21.7477 7.18643C22.0845 7.30671 22.3692 7.4711 22.6017 7.67958C22.8343 7.88806 23.0107 8.13063 23.131 8.40727C23.2512 8.67991 23.3114 8.96858 23.3114 9.27329C23.3114 9.54993 23.2833 9.7945 23.2272 10.007C23.1711 10.2155 23.0869 10.3979 22.9746 10.5543C22.8664 10.7066 22.73 10.8369 22.5657 10.9452C22.4053 11.0534 22.2208 11.1436 22.0124 11.2158C22.9826 11.5526 23.4678 12.2121 23.4678 13.1944C23.4678 13.6595 23.3836 14.0644 23.2152 14.4092C23.0468 14.754 22.8202 15.0407 22.5356 15.2692C22.2549 15.4978 21.9282 15.6702 21.5553 15.7864C21.1824 15.8987 20.7935 15.9548 20.3886 15.9548C19.9716 15.9548 19.6008 15.9107 19.276 15.8225C18.9513 15.7303 18.6626 15.59 18.41 15.4015C18.1574 15.2091 17.9349 14.9645 17.7424 14.6678C17.554 14.3711 17.3896 14.0183 17.2493 13.6094L18.0792 13.2726C18.1514 13.2405 18.2216 13.2185 18.2897 13.2064C18.3619 13.1944 18.432 13.1884 18.5002 13.1884C18.6285 13.1884 18.7428 13.2144 18.843 13.2666C18.9472 13.3147 19.0254 13.3868 19.0775 13.4831C19.258 13.8158 19.4484 14.0584 19.6489 14.2108C19.8533 14.3591 20.0919 14.4333 20.3645 14.4333C20.573 14.4333 20.7534 14.3992 20.9058 14.331C21.0622 14.2589 21.1905 14.1687 21.2907 14.0604C21.3949 13.9482 21.4731 13.8219 21.5252 13.6815C21.5774 13.5412 21.6034 13.3989 21.6034 13.2545C21.6034 13.0661 21.5894 12.8977 21.5613 12.7494C21.5373 12.597 21.4651 12.4667 21.3448 12.3585C21.2245 12.2502 21.0421 12.168 20.7975 12.1119C20.557 12.0517 20.2202 12.0217 19.7872 12.0217V10.7347C20.152 10.7347 20.4467 10.7066 20.6712 10.6505C20.8958 10.5944 21.0682 10.5182 21.1884 10.422C21.3127 10.3217 21.3949 10.2014 21.435 10.0611C21.4751 9.92079 21.4952 9.76643 21.4952 9.59804C21.4952 9.25324 21.411 8.98862 21.2426 8.80419C21.0782 8.61576 20.8256 8.52154 20.4848 8.52154C20.3445 8.52154 20.2162 8.54158 20.0999 8.58168C19.9836 8.62177 19.8794 8.6759 19.7872 8.74405C19.695 8.81221 19.6148 8.8924 19.5466 8.98461C19.4825 9.07683 19.4304 9.17706 19.3903 9.28531C19.3261 9.46573 19.2439 9.59604 19.1437 9.67622C19.0475 9.75641 18.9152 9.7965 18.7468 9.7965C18.7067 9.7965 18.6626 9.7945 18.6145 9.79049C18.5704 9.78648 18.5243 9.78047 18.4761 9.77245L17.4899 9.59804C17.554 9.16102 17.6763 8.78014 17.8567 8.45538C18.0411 8.13063 18.2677 7.86 18.5363 7.6435C18.8089 7.42699 19.1196 7.26662 19.4685 7.16238C19.8173 7.05413 20.1921 7 20.5931 7Z" fill="#253031"/>
</svg>
