<svg width="24" height="24" viewBox="0 0 24 24" fill="none" xmlns="http://www.w3.org/2000/svg">
<path d="M20.8 15.2V3.2C20.8 1.87451 19.7254 0.799995 18.4 0.799995H10.4L3.19995 8V20.8C3.19995 22.1255 4.27447 23.2 5.59995 23.2H7.19995" stroke="#253031" stroke-width="1.6" stroke-linecap="round"/>
<path d="M3.19995 7.99999H8.79995C9.68361 7.99999 10.4 7.28365 10.4 6.4V0.799995" stroke="#253031" stroke-width="1.6" stroke-linecap="round"/>
<path fill-rule="evenodd" clip-rule="evenodd" d="M12.2307 17.6C12.9772 17.6 13.5575 17.7535 13.9716 18.0606C14.3857 18.3677 14.5928 18.8229 14.5928 19.4263C14.5928 20.0566 14.3898 20.532 13.9839 20.8525C13.5779 21.1731 13.0344 21.3333 12.3533 21.3333H11.7403V23.2H10.4V17.6H12.2307ZM12.2389 20.3798C12.555 20.3798 12.7961 20.3057 12.9622 20.1576C13.1284 20.0094 13.2115 19.7657 13.2115 19.4263C13.2115 18.8391 12.8792 18.5455 12.2144 18.5455H11.7404V20.3798H12.2389ZM16.8813 17.6C17.7694 17.6 18.4818 17.798 19.0185 18.1939C19.5552 18.5899 19.8236 19.3158 19.8236 20.3717C19.8236 21.4115 19.562 22.1428 19.039 22.5657C18.5159 22.9886 17.8375 23.2 17.0039 23.2H15.3039V17.6H16.8813ZM16.6443 18.5616V22.2384H17.0856C17.527 22.2384 17.862 22.1024 18.0909 21.8303C18.3197 21.5583 18.4342 21.0721 18.4342 20.3717C18.4342 19.8923 18.377 19.5206 18.2625 19.2566C18.1481 18.9926 17.9928 18.8108 17.7967 18.7111C17.6005 18.6115 17.358 18.5616 17.0693 18.5616H16.6443ZM20.6245 23.2V17.6H24L23.8611 18.5455H21.9649V20.0323H23.6159V20.9778H21.9649V23.2H20.6245Z" fill="#253031"/>
</svg>
