<svg width="16" height="16" viewBox="0 0 16 16" fill="none" xmlns="http://www.w3.org/2000/svg">
<path d="M15.3412 1.71793L14.281 0.657661C13.4049 -0.21922 11.9771 -0.21922 11.1002 0.657661L1.55956 10.1993C1.49946 10.2594 1.45554 10.3334 1.43242 10.4151L0.0192738 15.3628C-0.0308105 15.5377 0.0185032 15.7249 0.146411 15.8536C0.241956 15.9491 0.369093 16 0.500082 16C0.546314 16 0.592546 15.9938 0.637236 15.9807L5.58479 14.5668C5.66647 14.5437 5.74121 14.4997 5.80131 14.4396L15.3412 4.89875C15.7665 4.47417 16 3.90936 16 3.30834C16 2.70731 15.7665 2.1425 15.3412 1.71793ZM5.18489 13.6421L1.22669 14.7725L2.35782 10.815L10.0407 3.13188L12.8678 5.95902L5.18489 13.6421ZM14.6346 4.19216L13.5744 5.25243L10.7473 2.42529L11.8076 1.36502C12.2945 0.878037 13.0874 0.878808 13.5752 1.36502L14.6354 2.42529C14.8719 2.66108 15.0014 2.97546 15.0014 3.30911C15.0006 3.64199 14.8704 3.9556 14.6346 4.19216Z" fill="#929798"/>
</svg>
