<svg width="24" height="24" viewBox="0 0 24 24" fill="none" xmlns="http://www.w3.org/2000/svg">
<path fill-rule="evenodd" clip-rule="evenodd" d="M5 7.99998C6.65685 7.99998 8 6.65684 8 4.99998C8 3.34313 6.65685 1.99998 5 1.99998C3.34315 1.99998 2 3.34313 2 4.99998C2 6.65684 3.34315 7.99998 5 7.99998Z" stroke="#253031" stroke-width="1.6" stroke-linecap="round"/>
<path fill-rule="evenodd" clip-rule="evenodd" d="M19 22C20.6569 22 22 20.6568 22 19C22 17.3431 20.6569 16 19 16C17.3431 16 16 17.3431 16 19C16 20.6568 17.3431 22 19 22Z" stroke="#253031" stroke-width="1.6" stroke-linecap="round"/>
<path fill-rule="evenodd" clip-rule="evenodd" d="M21.8 4.2C22.3523 3.64771 22.3523 2.75228 21.8 2.2V2.2C21.2477 1.64771 20.3523 1.64771 19.8 2.2L2.20001 19.8C1.64773 20.3523 1.64773 21.2477 2.20001 21.8V21.8C2.7523 22.3523 3.64773 22.3523 4.20001 21.8L21.8 4.2Z" stroke="#253031" stroke-width="1.6" stroke-linecap="round"/>
</svg>
