<svg width="24" height="24" viewBox="0 0 24 24" fill="none" xmlns="http://www.w3.org/2000/svg">
<path fill-rule="evenodd" clip-rule="evenodd" d="M4.56125 0C2.50885 0 0.924351 1.8046 1.18981 3.83976L2.90934 17.0229C3.12971 18.7124 4.17398 20.1824 5.6967 20.9467L10.8636 23.5403C11.5787 23.8993 12.4214 23.8993 13.1366 23.5403L18.3035 20.9467C19.8262 20.1824 20.8705 18.7124 21.0908 17.0229L22.8104 3.83975C23.0758 1.8046 21.4913 0 19.4389 0H4.56125ZM2.77637 3.63281C2.63583 2.55538 3.47469 1.6 4.56125 1.6H19.4389C20.5255 1.6 21.3644 2.55538 21.2238 3.63281L19.5043 16.8159C19.3526 17.9788 18.6338 18.9907 17.5857 19.5168L12.4188 22.1103C12.1553 22.2426 11.8449 22.2426 11.5814 22.1103L6.41447 19.5168C5.36637 18.9907 4.64758 17.9788 4.4959 16.8159L2.77637 3.63281ZM5.66916 2.39999C4.68218 2.39999 3.9114 3.25291 4.011 4.23485L5.2581 16.5302C5.34731 17.4097 5.88856 18.1791 6.68621 18.5603L11.2813 20.7562C11.7358 20.9733 12.2641 20.9733 12.7185 20.7562L17.3136 18.5603C18.1113 18.1791 18.6525 17.4097 18.7417 16.5302L19.9888 4.23485C20.0884 3.25291 19.3176 2.39999 18.3307 2.39999H5.66916ZM5.60283 4.07339C5.59885 4.03411 5.62968 3.99999 5.66916 3.99999H18.3307C18.3701 3.99999 18.401 4.03411 18.397 4.07339L17.1499 16.3687C17.117 16.6928 16.9176 16.9762 16.6237 17.1167L12.0287 19.3125C12.0105 19.3212 11.9893 19.3212 11.9712 19.3125L7.37608 17.1167C7.08221 16.9762 6.8828 16.6928 6.84994 16.3687L5.60283 4.07339Z" fill="#253031"/>
</svg>
