<svg width="24" height="24" viewBox="0 0 24 24" fill="none" xmlns="http://www.w3.org/2000/svg">
<path d="M9.6001 3.53123L9.81783 4.30103L10.4001 4.13634V3.53123H9.6001ZM14.4001 3.53123H13.6001V4.13634L14.1824 4.30103L14.4001 3.53123ZM16.2909 4.3151L15.9002 5.01325L16.4285 5.30884L16.8565 4.88079L16.2909 4.3151ZM16.5256 4.08038L15.9599 3.51469L15.9599 3.51469L16.5256 4.08038ZM18.7883 4.08038L19.354 3.51469L18.7883 4.08038ZM19.9197 5.21175L19.354 5.77744L19.9197 5.21175ZM19.9197 7.47449L19.354 6.90881V6.90881L19.9197 7.47449ZM19.685 7.70922L19.1193 7.14353L18.6912 7.57158L18.9868 8.09985L19.685 7.70922ZM20.4688 9.59998L19.699 9.8177L19.8637 10.4H20.4688V9.59998ZM20.4688 14.4V13.6H19.8637L19.699 14.1822L20.4688 14.4ZM19.685 16.2907L18.9868 15.9001L18.6912 16.4284L19.1193 16.8564L19.685 16.2907ZM16.2909 19.6848L16.8565 19.1192L16.4285 18.6911L15.9002 18.9867L16.2909 19.6848ZM14.4001 20.4687L14.1824 19.6989L13.6001 19.8636V20.4687H14.4001ZM9.6001 20.4687H10.4001V19.8636L9.81783 19.6989L9.6001 20.4687ZM7.70934 19.6848L8.09998 18.9867L7.5717 18.6911L7.14365 19.1192L7.70934 19.6848ZM7.47461 19.9196L6.90893 19.3539H6.90893L7.47461 19.9196ZM5.21187 19.9196L5.77756 19.3539L5.21187 19.9196ZM4.0805 18.7882L3.51482 19.3539L4.0805 18.7882ZM4.0805 16.5255L3.51482 15.9598L3.51482 15.9598L4.0805 16.5255ZM4.31523 16.2907L4.88091 16.8564L5.30896 16.4284L5.01337 15.9001L4.31523 16.2907ZM3.53135 14.4L4.30115 14.1822L4.13646 13.6H3.53135V14.4ZM3.2001 9.59998V10.4V9.59998ZM3.53135 9.59998V10.4H4.13646L4.30115 9.8177L3.53135 9.59998ZM4.31523 7.70922L5.01337 8.09985L5.30896 7.57158L4.88091 7.14353L4.31523 7.70922ZM7.70934 4.3151L7.14365 4.88079L7.5717 5.30884L8.09998 5.01325L7.70934 4.3151ZM10.4001 3.53123V3.19998H8.8001V3.53123H10.4001ZM10.4001 3.19998C10.4001 2.75815 10.7583 2.39998 11.2001 2.39998V0.799976C9.87461 0.799976 8.8001 1.87449 8.8001 3.19998H10.4001ZM11.2001 2.39998H12.8001V0.799976H11.2001V2.39998ZM12.8001 2.39998C13.2419 2.39998 13.6001 2.75815 13.6001 3.19998H15.2001C15.2001 1.87449 14.1256 0.799976 12.8001 0.799976V2.39998ZM13.6001 3.19998V3.53123H15.2001V3.19998H13.6001ZM14.1824 4.30103C14.787 4.47204 15.3626 4.71245 15.9002 5.01325L16.6815 3.61696C16.0361 3.25586 15.3446 2.96697 14.6178 2.76143L14.1824 4.30103ZM16.8565 4.88079L17.0913 4.64606L15.9599 3.51469L15.7252 3.74942L16.8565 4.88079ZM17.0913 4.64606C17.4037 4.33365 17.9102 4.33365 18.2226 4.64606L19.354 3.51469C18.4167 2.57744 16.8972 2.57744 15.9599 3.51469L17.0913 4.64606ZM18.2226 4.64606L19.354 5.77744L20.4854 4.64606L19.354 3.51469L18.2226 4.64606ZM19.354 5.77744C19.6664 6.08986 19.6664 6.59639 19.354 6.90881L20.4854 8.04018C21.4226 7.10292 21.4226 5.58332 20.4854 4.64606L19.354 5.77744ZM19.354 6.90881L19.1193 7.14353L20.2507 8.2749L20.4854 8.04018L19.354 6.90881ZM18.9868 8.09985C19.2876 8.63744 19.528 9.21309 19.699 9.8177L21.2386 9.38225C21.0331 8.65552 20.7442 7.96395 20.3831 7.31858L18.9868 8.09985ZM20.4688 10.4H20.8001V8.79997H20.4688V10.4ZM20.8001 10.4C21.2419 10.4 21.6001 10.7581 21.6001 11.2H23.2001C23.2001 9.87449 22.1256 8.79997 20.8001 8.79997V10.4ZM21.6001 11.2V12.8H23.2001V11.2H21.6001ZM21.6001 12.8C21.6001 13.2418 21.2419 13.6 20.8001 13.6V15.2C22.1256 15.2 23.2001 14.1255 23.2001 12.8H21.6001ZM20.8001 13.6H20.4688V15.2H20.8001V13.6ZM19.699 14.1822C19.528 14.7869 19.2876 15.3625 18.9868 15.9001L20.3831 16.6814C20.7442 16.036 21.0331 15.3444 21.2386 14.6177L19.699 14.1822ZM19.1193 16.8564L19.354 17.0911L20.4854 15.9598L20.2507 15.725L19.1193 16.8564ZM19.354 17.0911C19.6664 17.4036 19.6664 17.9101 19.354 18.2225L20.4854 19.3539C21.4226 18.4166 21.4226 16.897 20.4854 15.9598L19.354 17.0911ZM19.354 18.2225L18.2226 19.3539L19.354 20.4853L20.4854 19.3539L19.354 18.2225ZM18.2226 19.3539C17.9102 19.6663 17.4037 19.6663 17.0913 19.3539L15.9599 20.4853C16.8972 21.4225 18.4167 21.4225 19.354 20.4853L18.2226 19.3539ZM17.0913 19.3539L16.8565 19.1192L15.7252 20.2505L15.9599 20.4853L17.0913 19.3539ZM15.9002 18.9867C15.3626 19.2875 14.787 19.5279 14.1824 19.6989L14.6178 21.2385C15.3446 21.033 16.0361 20.7441 16.6815 20.383L15.9002 18.9867ZM13.6001 20.4687V20.8H15.2001V20.4687H13.6001ZM13.6001 20.8C13.6001 21.2418 13.2419 21.6 12.8001 21.6V23.2C14.1256 23.2 15.2001 22.1255 15.2001 20.8H13.6001ZM12.8001 21.6H11.2001V23.2H12.8001V21.6ZM11.2001 21.6C10.7583 21.6 10.4001 21.2418 10.4001 20.8H8.8001C8.8001 22.1255 9.87461 23.2 11.2001 23.2V21.6ZM10.4001 20.8V20.4687H8.8001V20.8H10.4001ZM9.81783 19.6989C9.21321 19.5279 8.63757 19.2875 8.09998 18.9867L7.3187 20.383C7.96407 20.7441 8.65564 21.033 9.38237 21.2385L9.81783 19.6989ZM7.14365 19.1192L6.90893 19.3539L8.0403 20.4853L8.27502 20.2505L7.14365 19.1192ZM6.90893 19.3539C6.59651 19.6663 6.08998 19.6663 5.77756 19.3539L4.64619 20.4853C5.58345 21.4225 7.10304 21.4225 8.0403 20.4853L6.90893 19.3539ZM5.77756 19.3539L4.64619 18.2225L3.51482 19.3539L4.64619 20.4853L5.77756 19.3539ZM4.64619 18.2225C4.33377 17.9101 4.33377 17.4036 4.64619 17.0911L3.51482 15.9598C2.57756 16.897 2.57756 18.4166 3.51482 19.3539L4.64619 18.2225ZM4.64619 17.0911L4.88091 16.8564L3.74954 15.725L3.51482 15.9598L4.64619 17.0911ZM5.01337 15.9001C4.71257 15.3625 4.47216 14.7869 4.30115 14.1822L2.76155 14.6177C2.96709 15.3444 3.25598 16.036 3.61708 16.6814L5.01337 15.9001ZM3.53135 13.6H3.2001V15.2H3.53135V13.6ZM3.2001 13.6C2.75827 13.6 2.4001 13.2418 2.4001 12.8H0.800098C0.800098 14.1255 1.87461 15.2 3.2001 15.2V13.6ZM2.4001 12.8V11.2H0.800098V12.8H2.4001ZM2.4001 11.2C2.4001 10.7581 2.75827 10.4 3.2001 10.4V8.79997C1.87461 8.79997 0.800098 9.87449 0.800098 11.2H2.4001ZM3.2001 10.4H3.53135V8.79997H3.2001V10.4ZM4.30115 9.8177C4.47216 9.21309 4.71257 8.63744 5.01337 8.09985L3.61708 7.31858C3.25598 7.96395 2.96709 8.65552 2.76155 9.38225L4.30115 9.8177ZM4.88091 7.14353L4.64619 6.90881L3.51482 8.04018L3.74954 8.2749L4.88091 7.14353ZM4.64619 6.90881C4.33377 6.59639 4.33377 6.08986 4.64619 5.77744L3.51482 4.64606C2.57756 5.58332 2.57756 7.10292 3.51482 8.04018L4.64619 6.90881ZM4.64619 5.77744L5.77756 4.64606L4.64619 3.51469L3.51482 4.64606L4.64619 5.77744ZM5.77756 4.64606C6.08998 4.33365 6.59651 4.33365 6.90893 4.64606L8.0403 3.51469C7.10304 2.57744 5.58345 2.57744 4.64619 3.51469L5.77756 4.64606ZM6.90893 4.64606L7.14365 4.88079L8.27502 3.74942L8.0403 3.51469L6.90893 4.64606ZM8.09998 5.01325C8.63757 4.71245 9.21321 4.47204 9.81783 4.30103L9.38237 2.76143C8.65564 2.96697 7.96407 3.25586 7.3187 3.61696L8.09998 5.01325ZM12 15.9999C14.2092 15.9999 16 14.2091 16 11.9999H14.4C14.4 13.3254 13.3255 14.3999 12 14.3999V15.9999ZM16 11.9999C16 9.79081 14.2092 7.99995 12 7.99995V9.59995C13.3255 9.59995 14.4 10.6745 14.4 11.9999H16ZM12 7.99995C9.79087 7.99995 8.00001 9.79081 8.00001 11.9999H9.60001C9.60001 10.6745 10.6745 9.59995 12 9.59995V7.99995ZM8.00001 11.9999C8.00001 14.2091 9.79087 15.9999 12 15.9999V14.3999C10.6745 14.3999 9.60001 13.3254 9.60001 11.9999H8.00001Z" fill="#253031"/>
</svg>
