<svg width="24" height="24" viewBox="0 0 24 24" fill="none" xmlns="http://www.w3.org/2000/svg">
<path fill-rule="evenodd" clip-rule="evenodd" d="M0.8 17.2C0.8 15.8745 1.87234 14.8 3.19783 14.8C5.49953 14.8 9.05161 14.8 12 14.8C14.9484 14.8 18.5005 14.8 20.8022 14.8C22.1277 14.8 23.2 15.8745 23.2 17.2V17.2C23.2 18.5255 22.1255 19.6 20.8 19.6H3.2C1.87452 19.6 0.8 18.5255 0.8 17.2V17.2Z" stroke="#253031" stroke-width="1.6" stroke-linecap="round"/>
<path d="M2.39996 10.8L2.39996 6C2.39996 4.67452 3.47448 3.6 4.79996 3.6H19.2C20.5254 3.6 21.6 4.67452 21.6 6V10.8" stroke="#253031" stroke-width="1.6" stroke-linecap="round"/>
<path d="M0.799988 17.2L0.799988 12.4C0.799988 11.5163 1.51633 10.8 2.39999 10.8V10.8C3.28364 10.8 3.99999 11.5163 3.99999 12.4V14.8" stroke="#253031" stroke-width="1.6" stroke-linecap="round"/>
<path d="M20 14.8V12.4C20 11.5163 20.7164 10.8 21.6 10.8V10.8C22.4837 10.8 23.2 11.5163 23.2 12.4L23.2001 17.2" stroke="#253031" stroke-width="1.6" stroke-linecap="round"/>
<path d="M4.00004 19.6V21.2" stroke="#253031" stroke-width="1.6" stroke-linecap="round"/>
<path d="M20 19.6V21.2" stroke="#253031" stroke-width="1.6" stroke-linecap="round"/>
<path fill-rule="evenodd" clip-rule="evenodd" d="M11.2 7.6C11.2 8.04183 10.8418 8.4 10.4 8.4C9.95818 8.4 9.60001 8.04183 9.60001 7.6C9.60001 7.15817 9.95818 6.8 10.4 6.8C10.8418 6.8 11.2 7.15817 11.2 7.6ZM14.4 7.6C14.4 8.04183 14.0418 8.4 13.6 8.4C13.1582 8.4 12.8 8.04183 12.8 7.6C12.8 7.15817 13.1582 6.8 13.6 6.8C14.0418 6.8 14.4 7.15817 14.4 7.6ZM10.4 11.6C10.8418 11.6 11.2 11.2418 11.2 10.8C11.2 10.3582 10.8418 10 10.4 10C9.95818 10 9.60001 10.3582 9.60001 10.8C9.60001 11.2418 9.95818 11.6 10.4 11.6ZM8.00002 7.6C8.00002 8.04183 7.64185 8.4 7.20002 8.4C6.7582 8.4 6.40002 8.04183 6.40002 7.6C6.40002 7.15817 6.7582 6.8 7.20002 6.8C7.64185 6.8 8.00002 7.15817 8.00002 7.6ZM7.20003 11.6C7.64186 11.6 8.00003 11.2418 8.00003 10.8C8.00003 10.3582 7.64186 10 7.20003 10C6.7582 10 6.40003 10.3582 6.40003 10.8C6.40003 11.2418 6.7582 11.6 7.20003 11.6ZM14.4 10.8C14.4 11.2418 14.0418 11.6 13.6 11.6C13.1582 11.6 12.8 11.2418 12.8 10.8C12.8 10.3582 13.1582 10 13.6 10C14.0418 10 14.4 10.3582 14.4 10.8ZM16.8 8.4C17.2418 8.4 17.6 8.04183 17.6 7.6C17.6 7.15817 17.2418 6.8 16.8 6.8C16.3582 6.8 16 7.15817 16 7.6C16 8.04183 16.3582 8.4 16.8 8.4ZM17.6 10.8C17.6 11.2418 17.2418 11.6 16.8 11.6C16.3582 11.6 16 11.2418 16 10.8C16 10.3582 16.3582 10 16.8 10C17.2418 10 17.6 10.3582 17.6 10.8Z" fill="#253031"/>
</svg>
