<svg width="24" height="24" viewBox="0 0 24 24" fill="none" xmlns="http://www.w3.org/2000/svg">
<path fill-rule="evenodd" clip-rule="evenodd" d="M3.20001 1.86667C3.20001 1.27757 3.67758 0.800003 4.26668 0.800003L19.7333 0.800003C20.3224 0.800003 20.8 1.27757 20.8 1.86667V14.4C20.8 19.2601 16.8601 23.2 12 23.2V23.2C7.13991 23.2 3.20001 19.2601 3.20001 14.4V1.86667Z" stroke="#253031" stroke-width="1.6" stroke-linecap="round"/>
<path d="M4.00006 8.79995H23.2001" stroke="#253031" stroke-width="1.6" stroke-linecap="round"/>
<path d="M16.0001 8.79996V7.19996C16.0001 5.87447 14.9256 4.79996 13.6001 4.79996C12.2746 4.79996 11.2001 5.87447 11.2001 7.19996L11.2001 8.79996" stroke="#253031" stroke-width="1.6" stroke-linecap="round"/>
<path fill-rule="evenodd" clip-rule="evenodd" d="M12.8001 12.4C12.8001 13.0627 12.2628 13.6 11.6001 13.6C10.9373 13.6 10.4001 13.0627 10.4001 12.4C10.4001 11.7372 10.9373 11.2 11.6001 11.2C12.2628 11.2 12.8001 11.7372 12.8001 12.4ZM17.6002 12.4C17.6002 13.0627 17.0629 13.6 16.4002 13.6C15.7374 13.6 15.2002 13.0627 15.2002 12.4C15.2002 11.7373 15.7374 11.2 16.4002 11.2C17.0629 11.2 17.6002 11.7373 17.6002 12.4Z" fill="#253031"/>
</svg>
