<svg width="14" height="16" viewBox="0 0 14 16" fill="none" xmlns="http://www.w3.org/2000/svg">
<path fill-rule="evenodd" clip-rule="evenodd" d="M3.88175 1.39681H0.380952C0.170558 1.39681 0 1.56737 0 1.77776C0 1.98816 0.170558 2.15872 0.380952 2.15872H13.0794C13.2898 2.15872 13.4603 1.98816 13.4603 1.77776C13.4603 1.56737 13.2898 1.39681 13.0794 1.39681H9.57853L9.35172 0.829781C9.16315 0.358357 8.63384 0 8.12697 0H5.33332C4.82786 0 4.29664 0.35959 4.10857 0.829781L3.88175 1.39681ZM4.70235 1.39681H8.75793L8.64431 1.11275C8.57144 0.930587 8.32229 0.761905 8.12697 0.761905H5.33332C5.13938 0.761905 4.88834 0.931841 4.81598 1.11275L4.70235 1.39681Z" fill="#929798"/>
<path d="M11.4711 14.59L11.9368 3.41271C11.9456 3.2025 12.1231 3.03919 12.3333 3.04794C12.5435 3.0567 12.7068 3.23421 12.6981 3.44443L12.2323 14.6217C12.2005 15.3851 11.5578 16 10.7936 16H2.66666C1.90211 16 1.2597 15.3841 1.22794 14.6217L0.762218 3.44443C0.753459 3.23421 0.916769 3.0567 1.12698 3.04794C1.33719 3.03919 1.5147 3.2025 1.52346 3.41271L1.98918 14.59C2.00394 14.9442 2.31049 15.2381 2.66666 15.2381H10.7936C11.1498 15.2381 11.4563 14.9448 11.4711 14.59Z" fill="#929798"/>
<path d="M6.4762 13.5873V4.95241C6.4762 4.74201 6.64676 4.57145 6.85715 4.57145C7.06755 4.57145 7.2381 4.74201 7.2381 4.95241V13.5873C7.2381 13.7977 7.06755 13.9683 6.85715 13.9683C6.64676 13.9683 6.4762 13.7977 6.4762 13.5873Z" fill="#929798"/>
<path d="M3.55571 4.96357L3.80968 13.5985C3.81586 13.8088 3.99136 13.9743 4.20167 13.9681C4.41197 13.9619 4.57744 13.7864 4.57125 13.5761L4.31729 4.94117C4.3111 4.73087 4.1356 4.56539 3.9253 4.57158C3.715 4.57777 3.54953 4.75326 3.55571 4.96357Z" fill="#929798"/>
<path d="M8.88905 13.5761L9.14301 4.94117C9.1492 4.73087 9.3247 4.56539 9.535 4.57158C9.7453 4.57777 9.91078 4.75326 9.90459 4.96357L9.65062 13.5985C9.64444 13.8088 9.46894 13.9743 9.25863 13.9681C9.04833 13.9619 8.88286 13.7864 8.88905 13.5761Z" fill="#929798"/>
</svg>
