<svg width="24" height="24" viewBox="0 0 24 24" fill="none" xmlns="http://www.w3.org/2000/svg">
<path fill-rule="evenodd" clip-rule="evenodd" d="M2.55713 2.57144C2.55713 1.26173 3.61885 0.200012 4.92855 0.200012H19.0714C20.3811 0.200012 21.4428 1.26173 21.4428 2.57144C21.4428 3.88114 20.3811 4.94286 19.0714 4.94286H18.3571V7.57047C18.3571 9.17058 17.4035 10.6167 15.9327 11.247L14.1758 12L15.9327 12.753C17.4035 13.3833 18.3571 14.8294 18.3571 16.4295V19.0572H19.0714C20.3811 19.0572 21.4428 20.1189 21.4428 21.4286C21.4428 22.7383 20.3811 23.8 19.0714 23.8H4.92856C3.61886 23.8 2.55713 22.7383 2.55713 21.4286C2.55713 20.1189 3.61885 19.0572 4.92855 19.0572H5.64281V16.4295C5.64281 14.8294 6.59639 13.3833 8.06713 12.753L9.82403 12L8.06713 11.247C6.59639 10.6167 5.64281 9.17058 5.64281 7.57047V4.94286H4.92856C3.61886 4.94286 2.55713 3.88114 2.55713 2.57144ZM6.19164 20.6572C6.28731 20.6941 6.39127 20.7143 6.49995 20.7143C6.60863 20.7143 6.71259 20.6941 6.80826 20.6572H17.1916C17.2873 20.6941 17.3912 20.7143 17.4999 20.7143C17.6086 20.7143 17.7126 20.6941 17.8082 20.6572H19.0714C19.4974 20.6572 19.8428 21.0025 19.8428 21.4286C19.8428 21.8546 19.4974 22.2 19.0714 22.2H4.92856C4.50251 22.2 4.15713 21.8546 4.15713 21.4286C4.15713 21.0025 4.50251 20.6572 4.92855 20.6572H6.19164ZM7.35709 19.0572V16.4295C7.35709 15.5152 7.902 14.6888 8.74242 14.3286L11.9999 12.9326L15.2575 14.3286C16.0979 14.6888 16.6428 15.5152 16.6428 16.4295V19.0572H7.35709ZM17.4999 3.28572C17.6086 3.28572 17.7126 3.30596 17.8083 3.34286H19.0714C19.4974 3.34286 19.8428 2.99748 19.8428 2.57144C19.8428 2.14539 19.4974 1.80001 19.0714 1.80001H4.92855C4.50251 1.80001 4.15713 2.14539 4.15713 2.57144C4.15713 2.99748 4.50251 3.34286 4.92856 3.34286H17.1916C17.2873 3.30596 17.3912 3.28572 17.4999 3.28572ZM16.6428 7.57047V4.94286H7.35709V7.57047C7.35709 8.48482 7.902 9.31119 8.74242 9.67137L11.9999 11.0674L15.2575 9.67137C16.0979 9.31119 16.6428 8.48482 16.6428 7.57047Z" fill="#253031"/>
</svg>
